<?xml version="1.0" encoding="UTF-8" standalone="no"?>
<!-- Created with Inkscape (http://www.inkscape.org/) -->

<svg
   xmlns:svg="http://www.w3.org/2000/svg"
   xmlns="http://www.w3.org/2000/svg"
   version="1.1"
   width="400"
   height="400.00003"
   id="svg12665">
  <defs
     id="defs12667">
    <clipPath
       id="clipPath7029">
      <path
         d="m 404.933,167.746 34.02,0 0,34.02 -34.02,0 0,-34.02 z"
         id="path7031" />
    </clipPath>
    <clipPath
       id="clipPath7017">
      <path
         d="m 404.937,167.75 34.016,0 0,34.016 -34.016,0 0,-34.016 z"
         id="path7019" />
    </clipPath>
    <clipPath
       id="clipPath7001">
      <path
         d="m 404.933,167.746 34.02,0 0,34.02 -34.02,0 0,-34.02 z"
         id="path7003" />
    </clipPath>
    <clipPath
       id="clipPath6973">
      <path
         d="m 404.937,167.75 34.016,0 0,34.016 -34.016,0 0,-34.016 z"
         id="path6975" />
    </clipPath>
    <clipPath
       id="clipPath6949">
      <path
         d="m 404.933,167.746 34.02,0 0,34.02 -34.02,0 0,-34.02 z"
         id="path6951" />
    </clipPath>
    <clipPath
       id="clipPath6925">
      <path
         d="m 404.937,167.75 34.016,0 0,34.016 -34.016,0 0,-34.016 z"
         id="path6927" />
    </clipPath>
    <clipPath
       id="clipPath6885">
      <path
         d="m 404.933,167.746 34.02,0 0,34.02 -34.02,0 0,-34.02 z"
         id="path6887" />
    </clipPath>
    <clipPath
       id="clipPath6865">
      <path
         d="m 404.937,167.75 34.016,0 0,34.016 -34.016,0 0,-34.016 z"
         id="path6867" />
    </clipPath>
    <clipPath
       id="clipPath6809">
      <path
         d="m 404.933,167.746 34.02,0 0,34.02 -34.02,0 0,-34.02 z"
         id="path6811" />
    </clipPath>
    <clipPath
       id="clipPath6777">
      <path
         d="m 404.937,167.75 34.016,0 0,34.016 -34.016,0 0,-34.016 z"
         id="path6779" />
    </clipPath>
    <clipPath
       id="clipPath6721">
      <path
         d="m 404.933,167.746 34.02,0 0,34.02 -34.02,0 0,-34.02 z"
         id="path6723" />
    </clipPath>
    <clipPath
       id="clipPath6689">
      <path
         d="m 404.937,167.75 34.016,0 0,34.016 -34.016,0 0,-34.016 z"
         id="path6691" />
    </clipPath>
    <clipPath
       id="clipPath6633">
      <path
         d="m 404.933,167.746 34.02,0 0,34.02 -34.02,0 0,-34.02 z"
         id="path6635" />
    </clipPath>
    <clipPath
       id="clipPath6609">
      <path
         d="m 404.937,167.75 34.016,0 0,34.016 -34.016,0 0,-34.016 z"
         id="path6611" />
    </clipPath>
    <clipPath
       id="clipPath6569">
      <path
         d="m 404.933,167.746 34.02,0 0,34.02 -34.02,0 0,-34.02 z"
         id="path6571" />
    </clipPath>
    <clipPath
       id="clipPath6545">
      <path
         d="m 404.937,167.75 34.016,0 0,34.016 -34.016,0 0,-34.016 z"
         id="path6547" />
    </clipPath>
    <clipPath
       id="clipPath6521">
      <path
         d="m 404.933,167.746 34.02,0 0,34.02 -34.02,0 0,-34.02 z"
         id="path6523" />
    </clipPath>
    <clipPath
       id="clipPath6489">
      <path
         d="m 404.937,167.75 34.016,0 0,34.016 -34.016,0 0,-34.016 z"
         id="path6491" />
    </clipPath>
  </defs>
  <path
     d="m 400,399.98824 -399.99529,0 L 0.00471,0 400,0 l 0,399.98824 z"
     id="path6479"
     style="fill:#000000;fill-opacity:1;fill-rule:nonzero;stroke:none" />
  <g
     transform="matrix(11.759034,0,0,-11.758826,0,81.857904)"
     id="g6481">
    <path
       d="M 0,0 0.552,0.415 0,1.148 0,0 z"
       id="path6483"
       style="fill:#515054;fill-opacity:1;fill-rule:nonzero;stroke:none" />
  </g>
  <g
     transform="matrix(11.759034,0,0,-11.758826,-4761.6634,2372.5431)"
     id="g6485">
    <g
       clip-path="url(#clipPath6489)"
       id="g6487">
      <g
         transform="translate(406.3826,198.5481)"
         id="g6493">
        <path
           d="M 0,0 C 0.249,0.188 0.326,0.316 0.08,0.643 -0.13,0.921 -0.245,0.93 -0.536,0.712 L 0,0 z M 0.529,-2.255 -1.683,0.68 -0.812,1.337 C -0.185,1.809 0.302,1.843 0.817,1.161 1.328,0.482 1.256,0.088 0.547,-0.446 L 0.413,-0.547 1.275,-1.691 0.529,-2.255 z"
           id="path6495"
           style="fill:#515054;fill-opacity:1;fill-rule:nonzero;stroke:none" />
      </g>
      <g
         transform="translate(408.9664,197.8427)"
         id="g6497">
        <path
           d="M 0,0 -2.212,2.934 -0.534,4.199 -0.078,3.594 -0.981,2.913 -0.606,2.414 0.141,2.977 0.616,2.348 -0.131,1.785 0.3,1.212 1.25,1.928 1.724,1.299 0,0 z"
           id="path6499"
           style="fill:#515054;fill-opacity:1;fill-rule:nonzero;stroke:none" />
      </g>
      <g
         transform="translate(411.1149,200.7047)"
         id="g6501">
        <path
           d="m 0,0 c 0.132,-0.176 0.268,-0.183 0.388,-0.093 0.12,0.09 0.15,0.223 0.018,0.399 L 0.187,0.596 -0.007,0.45 -0.419,0.998 0.549,1.727 1.778,0.096 1.381,-0.202 1.153,-0.131 c -0.056,-0.26 -0.182,-0.458 -0.412,-0.632 -0.77,-0.579 -1.189,-0.331 -2.06,0.826 -0.835,1.108 -0.875,1.718 -0.129,2.281 0.415,0.312 0.905,0.438 1.316,0.171 C -0.004,2.432 0.121,2.295 0.3,2.058 L -0.475,1.475 -0.605,1.646 C -0.737,1.822 -0.872,1.828 -0.992,1.738 -1.112,1.648 -1.143,1.516 -1.01,1.341 L 0,0 z"
           id="path6503"
           style="fill:#515054;fill-opacity:1;fill-rule:nonzero;stroke:none" />
      </g>
      <g
         transform="translate(413.3432,201.1405)"
         id="g6505">
        <path
           d="M 0,0 -2.212,2.935 -1.437,3.518 0.774,0.583 0,0 z"
           id="path6507"
           style="fill:#515054;fill-opacity:1;fill-rule:nonzero;stroke:none" />
      </g>
      <g
         transform="translate(405.0566,191.3304)"
         id="g6509">
        <path
           d="M 0,0 C 0.249,0.188 0.326,0.316 0.08,0.643 -0.13,0.921 -0.245,0.93 -0.536,0.712 L 0,0 z M 0.529,-2.255 -1.683,0.68 -0.812,1.337 C -0.185,1.81 0.302,1.843 0.817,1.161 1.328,0.482 1.256,0.088 0.546,-0.446 L 0.413,-0.547 1.275,-1.692 0.529,-2.255 z"
           id="path6511"
           style="fill:#515054;fill-opacity:1;fill-rule:nonzero;stroke:none" />
      </g>
    </g>
  </g>
  <g
     transform="matrix(11.759034,0,0,-11.758826,31.79286,131.01799)"
     id="g6513">
    <path
       d="M 0,0 -2.212,2.934 -0.534,4.199 -0.078,3.594 -0.981,2.913 -0.605,2.414 0.142,2.977 0.616,2.348 -0.131,1.784 0.3,1.212 1.249,1.928 1.723,1.299 0,0 z"
       id="path6515"
       style="fill:#515054;fill-opacity:1;fill-rule:nonzero;stroke:none" />
  </g>
  <g
     transform="matrix(11.759034,0,0,-11.758826,-4761.6634,2372.5431)"
     id="g6517">
    <g
       clip-path="url(#clipPath6521)"
       id="g6519">
      <g
         transform="translate(409.7888,193.487)"
         id="g6525">
        <path
           d="m 0,0 c 0.133,-0.175 0.268,-0.183 0.388,-0.093 0.12,0.09 0.15,0.223 0.018,0.399 L 0.187,0.596 -0.007,0.45 -0.419,0.998 0.549,1.727 1.778,0.096 1.381,-0.202 1.153,-0.131 c -0.056,-0.26 -0.182,-0.458 -0.412,-0.632 -0.77,-0.579 -1.189,-0.331 -2.06,0.826 -0.835,1.108 -0.875,1.718 -0.129,2.281 0.415,0.312 0.905,0.438 1.316,0.171 C -0.004,2.432 0.121,2.295 0.3,2.058 L -0.475,1.475 -0.605,1.646 C -0.737,1.822 -0.872,1.829 -0.992,1.739 -1.111,1.648 -1.143,1.516 -1.01,1.341 L 0,0 z"
           id="path6527"
           style="fill:#515054;fill-opacity:1;fill-rule:nonzero;stroke:none" />
      </g>
      <g
         transform="translate(412.0171,193.9229)"
         id="g6529">
        <path
           d="M 0,0 -2.212,2.935 -1.437,3.519 0.774,0.583 0,0 z"
           id="path6531"
           style="fill:#515054;fill-opacity:1;fill-rule:nonzero;stroke:none" />
      </g>
      <g
         transform="translate(413.6861,197.8333)"
         id="g6533">
        <path
           d="M 0,0 C 0.249,0.187 0.326,0.316 0.079,0.643 -0.13,0.921 -0.245,0.93 -0.536,0.712 L 0,0 z M 0.528,-2.255 -1.683,0.68 -0.812,1.337 C -0.185,1.809 0.302,1.843 0.817,1.16 1.328,0.482 1.256,0.088 0.546,-0.447 l -0.133,-0.1 0.862,-1.144 -0.747,-0.564 z"
           id="path6535"
           style="fill:#515054;fill-opacity:1;fill-rule:nonzero;stroke:none" />
      </g>
    </g>
  </g>
  <g
     transform="matrix(11.759034,0,0,-11.758826,133.25919,54.558624)"
     id="g6537">
    <path
       d="M 0,0 -2.211,2.935 -0.534,4.199 -0.078,3.594 -0.981,2.913 -0.605,2.415 0.142,2.977 0.616,2.348 -0.131,1.785 0.3,1.213 1.25,1.929 1.724,1.299 0,0 z"
       id="path6539"
       style="fill:#515054;fill-opacity:1;fill-rule:nonzero;stroke:none" />
  </g>
  <g
     transform="matrix(11.759034,0,0,-11.758826,-4761.6634,2372.5431)"
     id="g6541">
    <g
       clip-path="url(#clipPath6545)"
       id="g6543">
      <g
         transform="translate(418.4182,199.9898)"
         id="g6549">
        <path
           d="m 0,0 c 0.133,-0.176 0.268,-0.183 0.387,-0.093 0.121,0.09 0.151,0.223 0.019,0.399 L 0.187,0.596 -0.007,0.45 -0.419,0.997 0.549,1.727 1.777,0.096 1.381,-0.203 1.153,-0.131 C 1.097,-0.391 0.971,-0.589 0.74,-0.763 -0.029,-1.343 -0.448,-1.094 -1.319,0.062 -2.154,1.171 -2.195,1.781 -1.448,2.343 -1.033,2.656 -0.543,2.782 -0.132,2.515 -0.004,2.432 0.12,2.295 0.299,2.058 L -0.475,1.474 -0.605,1.646 C -0.737,1.822 -0.872,1.828 -0.992,1.738 -1.112,1.648 -1.143,1.516 -1.01,1.341 L 0,0 z"
           id="path6551"
           style="fill:#515054;fill-opacity:1;fill-rule:nonzero;stroke:none" />
      </g>
      <g
         transform="translate(420.6465,200.4256)"
         id="g6553">
        <path
           d="M 0,0 -2.212,2.935 -1.437,3.519 0.774,0.583 0,0 z"
           id="path6555"
           style="fill:#515054;fill-opacity:1;fill-rule:nonzero;stroke:none" />
      </g>
      <g
         transform="translate(403.7305,184.113)"
         id="g6557">
        <path
           d="M 0,0 C 0.249,0.188 0.326,0.316 0.08,0.643 -0.13,0.922 -0.245,0.93 -0.535,0.712 L 0,0 z M 0.529,-2.255 -1.683,0.68 -0.812,1.337 C -0.185,1.81 0.302,1.843 0.817,1.161 1.328,0.482 1.256,0.088 0.546,-0.446 L 0.413,-0.547 1.276,-1.691 0.529,-2.255 z"
           id="path6559"
           style="fill:#515054;fill-opacity:1;fill-rule:nonzero;stroke:none" />
      </g>
      <g
         transform="translate(406.3142,183.4075)"
         id="g6561">
        <path
           d="M 0,0 -2.212,2.934 -0.534,4.199 -0.078,3.594 -0.981,2.913 -0.605,2.414 0.142,2.978 0.616,2.348 -0.131,1.784 0.3,1.213 1.25,1.929 1.724,1.299 0,0 z"
           id="path6563"
           style="fill:#515054;fill-opacity:1;fill-rule:nonzero;stroke:none" />
      </g>
    </g>
  </g>
  <g
     transform="matrix(11.759034,0,0,-11.758826,-4761.6634,2372.5431)"
     id="g6565">
    <g
       clip-path="url(#clipPath6569)"
       id="g6567">
      <g
         transform="translate(408.4628,186.2696)"
         id="g6573">
        <path
           d="m 0,0 c 0.133,-0.175 0.268,-0.183 0.387,-0.092 0.121,0.09 0.151,0.222 0.019,0.398 L 0.187,0.596 -0.007,0.45 -0.419,0.998 0.549,1.727 1.778,0.096 1.381,-0.202 1.154,-0.13 C 1.097,-0.391 0.971,-0.589 0.741,-0.762 c -0.77,-0.58 -1.189,-0.332 -2.06,0.825 -0.835,1.108 -0.875,1.718 -0.129,2.281 0.415,0.312 0.905,0.438 1.316,0.171 C -0.004,2.432 0.121,2.295 0.3,2.058 L -0.475,1.475 -0.605,1.646 C -0.737,1.822 -0.872,1.829 -0.992,1.739 -1.112,1.648 -1.143,1.517 -1.01,1.341 L 0,0 z"
           id="path6575"
           style="fill:#515054;fill-opacity:1;fill-rule:nonzero;stroke:none" />
      </g>
      <g
         transform="translate(410.6917,186.7054)"
         id="g6577">
        <path
           d="M 0,0 -2.212,2.935 -1.438,3.518 0.774,0.583 0,0 z"
           id="path6579"
           style="fill:#515054;fill-opacity:1;fill-rule:nonzero;stroke:none" />
      </g>
      <g
         transform="translate(412.3599,190.6156)"
         id="g6581">
        <path
           d="M 0,0 C 0.249,0.188 0.326,0.316 0.08,0.643 -0.13,0.921 -0.245,0.93 -0.535,0.712 L 0,0 z M 0.529,-2.255 -1.683,0.68 -0.812,1.337 C -0.185,1.81 0.302,1.843 0.817,1.161 1.328,0.482 1.256,0.088 0.547,-0.447 l -0.134,-0.1 0.863,-1.144 -0.747,-0.564 z"
           id="path6583"
           style="fill:#515054;fill-opacity:1;fill-rule:nonzero;stroke:none" />
      </g>
      <g
         transform="translate(414.9437,189.91)"
         id="g6585">
        <path
           d="M 0,0 -2.212,2.935 -0.533,4.199 -0.078,3.594 -0.981,2.913 -0.605,2.414 0.142,2.978 0.616,2.348 -0.131,1.784 0.3,1.213 1.25,1.929 1.724,1.299 0,0 z"
           id="path6587"
           style="fill:#515054;fill-opacity:1;fill-rule:nonzero;stroke:none" />
      </g>
      <g
         transform="translate(417.0923,192.7721)"
         id="g6589">
        <path
           d="m 0,0 c 0.133,-0.175 0.268,-0.183 0.388,-0.092 0.12,0.09 0.151,0.222 0.018,0.398 L 0.187,0.596 -0.007,0.45 -0.419,0.998 0.549,1.727 1.778,0.096 1.382,-0.202 1.154,-0.13 C 1.097,-0.391 0.971,-0.589 0.741,-0.762 c -0.77,-0.58 -1.189,-0.332 -2.06,0.825 -0.835,1.108 -0.875,1.718 -0.129,2.281 0.415,0.312 0.905,0.438 1.316,0.171 C -0.004,2.432 0.121,2.295 0.3,2.058 L -0.475,1.475 -0.604,1.646 C -0.737,1.822 -0.872,1.829 -0.992,1.739 -1.111,1.648 -1.143,1.517 -1.01,1.341 L 0,0 z"
           id="path6591"
           style="fill:#515054;fill-opacity:1;fill-rule:nonzero;stroke:none" />
      </g>
      <g
         transform="translate(419.3206,193.2079)"
         id="g6593">
        <path
           d="M 0,0 -2.212,2.935 -1.437,3.519 0.775,0.583 0,0 z"
           id="path6595"
           style="fill:#515054;fill-opacity:1;fill-rule:nonzero;stroke:none" />
      </g>
      <g
         transform="translate(420.9888,197.1184)"
         id="g6597">
        <path
           d="M 0,0 C 0.25,0.187 0.326,0.316 0.08,0.643 -0.13,0.921 -0.244,0.93 -0.535,0.712 L 0,0 z M 0.529,-2.255 -1.682,0.68 -0.811,1.337 C -0.184,1.809 0.303,1.843 0.817,1.16 1.329,0.482 1.257,0.088 0.546,-0.446 L 0.413,-0.547 1.276,-1.691 0.529,-2.255 z"
           id="path6599"
           style="fill:#515054;fill-opacity:1;fill-rule:nonzero;stroke:none" />
      </g>
    </g>
  </g>
  <g
     transform="matrix(11.759034,0,0,-11.758826,219.14839,62.966194)"
     id="g6601">
    <path
       d="M 0,0 -2.212,2.935 -0.534,4.199 -0.078,3.594 -0.982,2.913 -0.606,2.415 0.141,2.978 0.615,2.348 -0.132,1.785 0.3,1.214 1.249,1.929 1.723,1.299 0,0 z"
       id="path6603"
       style="fill:#515054;fill-opacity:1;fill-rule:nonzero;stroke:none" />
  </g>
  <g
     transform="matrix(11.759034,0,0,-11.758826,-4761.6634,2372.5431)"
     id="g6605">
    <g
       clip-path="url(#clipPath6609)"
       id="g6607">
      <g
         transform="translate(425.7217,199.275)"
         id="g6613">
        <path
           d="m 0,0 c 0.133,-0.176 0.267,-0.183 0.387,-0.093 0.121,0.09 0.151,0.223 0.018,0.399 L 0.186,0.596 -0.007,0.45 -0.42,0.998 0.549,1.727 1.778,0.096 1.381,-0.203 1.153,-0.13 C 1.096,-0.391 0.971,-0.589 0.74,-0.762 -0.029,-1.342 -0.448,-1.094 -1.319,0.063 -2.154,1.171 -2.195,1.781 -1.448,2.344 -1.034,2.656 -0.544,2.782 -0.133,2.515 -0.004,2.432 0.12,2.295 0.299,2.058 L -0.476,1.474 -0.605,1.646 C -0.737,1.822 -0.873,1.828 -0.993,1.738 -1.112,1.648 -1.143,1.516 -1.01,1.341 L 0,0 z"
           id="path6615"
           style="fill:#515054;fill-opacity:1;fill-rule:nonzero;stroke:none" />
      </g>
      <g
         transform="translate(427.95,199.7108)"
         id="g6617">
        <path
           d="M 0,0 -2.212,2.935 -1.438,3.519 0.775,0.583 0,0 z"
           id="path6619"
           style="fill:#515054;fill-opacity:1;fill-rule:nonzero;stroke:none" />
      </g>
      <g
         transform="translate(429.619,203.6213)"
         id="g6621">
        <path
           d="M 0,0 C 0.248,0.187 0.326,0.316 0.08,0.643 -0.13,0.921 -0.246,0.93 -0.535,0.712 L 0,0 z M 0.529,-2.255 -1.684,0.68 -0.812,1.337 C -0.185,1.809 0.302,1.843 0.817,1.16 1.327,0.482 1.256,0.088 0.546,-0.446 L 0.412,-0.547 1.276,-1.692 0.529,-2.255 z"
           id="path6623"
           style="fill:#515054;fill-opacity:1;fill-rule:nonzero;stroke:none" />
      </g>
      <g
         transform="translate(404.9881,176.1898)"
         id="g6625">
        <path
           d="M 0,0 -2.211,2.935 -0.533,4.199 -0.078,3.594 -0.981,2.913 -0.605,2.414 0.142,2.977 0.616,2.348 -0.131,1.784 0.3,1.212 1.25,1.928 1.724,1.299 0,0 z"
           id="path6627"
           style="fill:#515054;fill-opacity:1;fill-rule:nonzero;stroke:none" />
      </g>
    </g>
  </g>
  <g
     transform="matrix(11.759034,0,0,-11.758826,-4761.6634,2372.5431)"
     id="g6629">
    <g
       clip-path="url(#clipPath6633)"
       id="g6631">
      <g
         transform="translate(407.1373,179.0519)"
         id="g6637">
        <path
           d="m 0,0 c 0.132,-0.175 0.267,-0.183 0.387,-0.093 0.12,0.09 0.151,0.223 0.018,0.399 L 0.187,0.596 -0.007,0.45 -0.42,0.998 0.549,1.727 1.777,0.096 1.381,-0.202 1.153,-0.131 C 1.096,-0.391 0.971,-0.589 0.74,-0.763 -0.029,-1.342 -0.448,-1.094 -1.319,0.063 -2.155,1.171 -2.195,1.781 -1.448,2.344 -1.034,2.656 -0.543,2.782 -0.132,2.515 -0.004,2.432 0.12,2.295 0.299,2.058 L -0.476,1.475 -0.605,1.646 C -0.737,1.822 -0.872,1.829 -0.993,1.739 -1.112,1.648 -1.143,1.516 -1.01,1.341 L 0,0 z"
           id="path6639"
           style="fill:#515054;fill-opacity:1;fill-rule:nonzero;stroke:none" />
      </g>
      <g
         transform="translate(409.365,179.4877)"
         id="g6641">
        <path
           d="M 0,0 -2.211,2.935 -1.436,3.518 0.775,0.583 0,0 z"
           id="path6643"
           style="fill:#515054;fill-opacity:1;fill-rule:nonzero;stroke:none" />
      </g>
      <g
         transform="translate(411.0345,183.3982)"
         id="g6645">
        <path
           d="M 0,0 C 0.249,0.188 0.326,0.316 0.079,0.643 -0.13,0.921 -0.246,0.93 -0.536,0.712 L 0,0 z M 0.528,-2.255 -1.683,0.68 -0.812,1.337 C -0.185,1.81 0.302,1.843 0.817,1.161 1.328,0.482 1.256,0.088 0.546,-0.447 l -0.133,-0.1 0.862,-1.144 -0.747,-0.564 z"
           id="path6647"
           style="fill:#515054;fill-opacity:1;fill-rule:nonzero;stroke:none" />
      </g>
      <g
         transform="translate(413.6176,182.6926)"
         id="g6649">
        <path
           d="M 0,0 -2.211,2.935 -0.534,4.199 -0.078,3.594 -0.981,2.913 -0.605,2.414 0.142,2.977 0.616,2.348 -0.131,1.784 0.3,1.212 1.25,1.928 1.724,1.299 0,0 z"
           id="path6651"
           style="fill:#515054;fill-opacity:1;fill-rule:nonzero;stroke:none" />
      </g>
      <g
         transform="translate(415.7668,185.5547)"
         id="g6653">
        <path
           d="m 0,0 c 0.132,-0.175 0.268,-0.183 0.387,-0.093 0.121,0.09 0.151,0.223 0.018,0.399 L 0.187,0.596 -0.007,0.45 -0.42,0.998 0.549,1.727 1.777,0.096 1.381,-0.202 1.153,-0.131 C 1.096,-0.391 0.971,-0.589 0.74,-0.763 -0.029,-1.342 -0.448,-1.094 -1.319,0.063 -2.155,1.171 -2.195,1.781 -1.448,2.344 -1.033,2.656 -0.543,2.782 -0.132,2.515 -0.004,2.432 0.12,2.295 0.299,2.058 L -0.476,1.475 -0.605,1.646 C -0.737,1.822 -0.872,1.829 -0.992,1.739 -1.112,1.648 -1.143,1.516 -1.01,1.341 L 0,0 z"
           id="path6655"
           style="fill:#515054;fill-opacity:1;fill-rule:nonzero;stroke:none" />
      </g>
      <g
         transform="translate(417.9944,185.9905)"
         id="g6657">
        <path
           d="M 0,0 -2.211,2.935 -1.437,3.518 0.775,0.583 0,0 z"
           id="path6659"
           style="fill:#515054;fill-opacity:1;fill-rule:nonzero;stroke:none" />
      </g>
      <g
         transform="translate(419.6641,189.9007)"
         id="g6661">
        <path
           d="M 0,0 C 0.248,0.187 0.326,0.316 0.079,0.643 -0.13,0.921 -0.246,0.93 -0.536,0.712 L 0,0 z M 0.528,-2.255 -1.684,0.68 -0.812,1.337 C -0.185,1.809 0.302,1.843 0.816,1.16 1.327,0.482 1.256,0.088 0.546,-0.447 l -0.133,-0.1 0.861,-1.144 -0.746,-0.564 z"
           id="path6663"
           style="fill:#515054;fill-opacity:1;fill-rule:nonzero;stroke:none" />
      </g>
      <g
         transform="translate(422.2471,189.1945)"
         id="g6665">
        <path
           d="M 0,0 -2.212,2.935 -0.534,4.2 -0.078,3.594 -0.982,2.913 -0.606,2.415 0.141,2.977 0.615,2.348 -0.132,1.785 0.299,1.213 1.249,1.929 1.723,1.299 0,0 z"
           id="path6667"
           style="fill:#515054;fill-opacity:1;fill-rule:nonzero;stroke:none" />
      </g>
      <g
         transform="translate(424.3957,192.0573)"
         id="g6669">
        <path
           d="m 0,0 c 0.133,-0.176 0.268,-0.183 0.388,-0.093 0.12,0.09 0.15,0.223 0.017,0.399 L 0.187,0.596 -0.007,0.45 -0.42,0.997 0.549,1.727 1.778,0.096 1.381,-0.203 1.153,-0.131 C 1.096,-0.391 0.971,-0.589 0.74,-0.763 c -0.769,-0.58 -1.188,-0.331 -2.059,0.825 -0.835,1.109 -0.876,1.719 -0.129,2.281 0.414,0.313 0.905,0.439 1.316,0.172 0.128,-0.083 0.253,-0.22 0.431,-0.457 L -0.476,1.474 -0.605,1.646 C -0.737,1.822 -0.872,1.828 -0.992,1.738 -1.112,1.648 -1.143,1.516 -1.01,1.341 L 0,0 z"
           id="path6671"
           style="fill:#515054;fill-opacity:1;fill-rule:nonzero;stroke:none" />
      </g>
      <g
         transform="translate(426.624,192.4931)"
         id="g6673">
        <path
           d="M 0,0 -2.211,2.935 -1.438,3.518 0.775,0.583 0,0 z"
           id="path6675"
           style="fill:#515054;fill-opacity:1;fill-rule:nonzero;stroke:none" />
      </g>
      <g
         transform="translate(428.2928,196.4036)"
         id="g6677">
        <path
           d="M 0,0 C 0.248,0.187 0.326,0.316 0.08,0.643 -0.13,0.921 -0.246,0.93 -0.536,0.712 L 0,0 z M 0.529,-2.255 -1.684,0.68 -0.812,1.337 C -0.185,1.809 0.303,1.843 0.817,1.16 1.329,0.482 1.256,0.088 0.546,-0.447 l -0.133,-0.1 0.863,-1.144 -0.747,-0.564 z"
           id="path6679"
           style="fill:#515054;fill-opacity:1;fill-rule:nonzero;stroke:none" />
      </g>
      <g
         transform="translate(430.8759,195.6973)"
         id="g6681">
        <path
           d="M 0,0 -2.211,2.935 -0.533,4.199 -0.077,3.594 -0.981,2.913 -0.605,2.415 0.142,2.977 0.617,2.348 -0.13,1.785 0.3,1.213 1.25,1.929 1.725,1.299 0,0 z"
           id="path6683"
           style="fill:#515054;fill-opacity:1;fill-rule:nonzero;stroke:none" />
      </g>
    </g>
  </g>
  <g
     transform="matrix(11.759034,0,0,-11.758826,-4761.6634,2372.5431)"
     id="g6685">
    <g
       clip-path="url(#clipPath6689)"
       id="g6687">
      <g
         transform="translate(433.0258,198.5602)"
         id="g6693">
        <path
           d="m 0,0 c 0.132,-0.176 0.267,-0.183 0.387,-0.093 0.119,0.09 0.151,0.223 0.018,0.399 L 0.186,0.596 -0.008,0.45 -0.42,0.997 0.547,1.727 1.777,0.096 1.381,-0.203 1.153,-0.131 C 1.096,-0.391 0.97,-0.589 0.74,-0.763 -0.029,-1.343 -0.448,-1.094 -1.319,0.062 -2.155,1.171 -2.195,1.781 -1.448,2.343 -1.034,2.656 -0.543,2.782 -0.133,2.515 -0.004,2.432 0.12,2.295 0.299,2.058 L -0.476,1.474 -0.605,1.646 C -0.737,1.822 -0.873,1.828 -0.993,1.738 -1.112,1.648 -1.143,1.516 -1.011,1.341 L 0,0 z"
           id="path6695"
           style="fill:#515054;fill-opacity:1;fill-rule:nonzero;stroke:none" />
      </g>
      <g
         transform="translate(435.2527,198.9959)"
         id="g6697">
        <path
           d="M 0,0 -2.211,2.935 -1.436,3.519 0.775,0.583 0,0 z"
           id="path6699"
           style="fill:#515054;fill-opacity:1;fill-rule:nonzero;stroke:none" />
      </g>
      <g
         transform="translate(436.9217,202.9064)"
         id="g6701">
        <path
           d="M 0,0 C 0.25,0.187 0.327,0.316 0.08,0.642 -0.129,0.921 -0.244,0.93 -0.535,0.711 L 0,0 z m 0.529,-2.255 -2.211,2.935 0.87,0.657 C -0.185,1.808 0.303,1.843 0.817,1.16 1.329,0.482 1.257,0.088 0.546,-0.447 L 0.413,-0.548 1.276,-1.692 0.529,-2.255 z"
           id="path6703"
           style="fill:#515054;fill-opacity:1;fill-rule:nonzero;stroke:none" />
      </g>
      <g
         transform="translate(403.6627,168.972)"
         id="g6705">
        <path
           d="M 0,0 -2.212,2.935 -0.534,4.199 -0.078,3.594 -0.982,2.913 -0.606,2.414 0.141,2.977 0.615,2.348 -0.132,1.785 0.3,1.213 1.249,1.928 1.723,1.299 0,0 z"
           id="path6707"
           style="fill:#515054;fill-opacity:1;fill-rule:nonzero;stroke:none" />
      </g>
      <g
         transform="translate(405.8112,171.8342)"
         id="g6709">
        <path
           d="m 0,0 c 0.132,-0.175 0.267,-0.183 0.387,-0.092 0.12,0.09 0.151,0.222 0.018,0.398 L 0.187,0.596 -0.007,0.45 -0.42,0.998 0.548,1.727 1.777,0.096 1.381,-0.202 1.153,-0.131 C 1.096,-0.391 0.971,-0.589 0.74,-0.762 -0.029,-1.342 -0.448,-1.094 -1.319,0.063 -2.155,1.171 -2.195,1.781 -1.448,2.344 -1.034,2.656 -0.543,2.782 -0.132,2.515 -0.004,2.432 0.12,2.295 0.299,2.058 L -0.476,1.475 -0.605,1.646 C -0.737,1.822 -0.872,1.829 -0.993,1.739 -1.112,1.648 -1.143,1.516 -1.01,1.341 L 0,0 z"
           id="path6711"
           style="fill:#515054;fill-opacity:1;fill-rule:nonzero;stroke:none" />
      </g>
    </g>
  </g>
  <g
     transform="matrix(11.759034,0,0,-11.758826,36.48829,346.84889)"
     id="g6713">
    <path
       d="M 0,0 -2.212,2.935 -1.437,3.519 0.775,0.583 0,0 z"
       id="path6715"
       style="fill:#515054;fill-opacity:1;fill-rule:nonzero;stroke:none" />
  </g>
  <g
     transform="matrix(11.759034,0,0,-11.758826,-4761.6634,2372.5431)"
     id="g6717">
    <g
       clip-path="url(#clipPath6721)"
       id="g6719">
      <g
         transform="translate(409.7085,176.1805)"
         id="g6725">
        <path
           d="M 0,0 C 0.249,0.188 0.326,0.316 0.079,0.643 -0.13,0.921 -0.246,0.93 -0.536,0.712 L 0,0 z M 0.528,-2.255 -1.684,0.68 -0.812,1.337 C -0.185,1.81 0.302,1.843 0.816,1.161 1.328,0.482 1.256,0.088 0.546,-0.446 L 0.413,-0.547 1.275,-1.691 0.528,-2.255 z"
           id="path6727"
           style="fill:#515054;fill-opacity:1;fill-rule:nonzero;stroke:none" />
      </g>
      <g
         transform="translate(412.2921,175.4749)"
         id="g6729">
        <path
           d="M 0,0 -2.212,2.935 -0.534,4.199 -0.078,3.594 -0.982,2.913 -0.606,2.414 0.141,2.977 0.615,2.348 -0.131,1.785 0.3,1.212 1.249,1.928 1.723,1.299 0,0 z"
           id="path6731"
           style="fill:#515054;fill-opacity:1;fill-rule:nonzero;stroke:none" />
      </g>
      <g
         transform="translate(414.4406,178.3371)"
         id="g6733">
        <path
           d="m 0,0 c 0.132,-0.175 0.267,-0.183 0.387,-0.092 0.12,0.09 0.151,0.222 0.018,0.398 L 0.187,0.596 -0.007,0.451 -0.42,0.998 0.549,1.727 1.778,0.096 1.381,-0.202 1.153,-0.131 C 1.096,-0.391 0.971,-0.589 0.74,-0.762 -0.029,-1.342 -0.448,-1.094 -1.319,0.063 -2.155,1.171 -2.195,1.781 -1.448,2.344 -1.033,2.656 -0.543,2.782 -0.132,2.515 -0.004,2.432 0.12,2.295 0.299,2.058 L -0.476,1.475 -0.604,1.646 C -0.737,1.822 -0.872,1.829 -0.993,1.739 -1.112,1.648 -1.143,1.516 -1.01,1.341 L 0,0 z"
           id="path6735"
           style="fill:#515054;fill-opacity:1;fill-rule:nonzero;stroke:none" />
      </g>
      <g
         transform="translate(416.6689,178.7728)"
         id="g6737">
        <path
           d="M 0,0 -2.212,2.935 -1.437,3.518 0.775,0.583 0,0 z"
           id="path6739"
           style="fill:#515054;fill-opacity:1;fill-rule:nonzero;stroke:none" />
      </g>
      <g
         transform="translate(418.3379,182.6833)"
         id="g6741">
        <path
           d="M 0,0 C 0.249,0.188 0.326,0.316 0.079,0.643 -0.13,0.921 -0.245,0.93 -0.536,0.712 L 0,0 z M 0.529,-2.255 -1.683,0.68 -0.812,1.337 C -0.185,1.81 0.302,1.843 0.816,1.161 1.328,0.482 1.256,0.088 0.546,-0.446 L 0.413,-0.547 1.275,-1.691 0.529,-2.255 z"
           id="path6743"
           style="fill:#515054;fill-opacity:1;fill-rule:nonzero;stroke:none" />
      </g>
      <g
         transform="translate(420.921,181.9778)"
         id="g6745">
        <path
           d="M 0,0 -2.211,2.935 -0.534,4.199 -0.078,3.594 -0.981,2.913 -0.605,2.414 0.141,2.977 0.615,2.348 -0.131,1.785 0.3,1.212 1.249,1.928 1.725,1.299 0,0 z"
           id="path6747"
           style="fill:#515054;fill-opacity:1;fill-rule:nonzero;stroke:none" />
      </g>
      <g
         transform="translate(423.0696,184.8398)"
         id="g6749">
        <path
           d="m 0,0 c 0.133,-0.175 0.268,-0.183 0.388,-0.092 0.12,0.09 0.15,0.222 0.019,0.398 L 0.187,0.596 -0.007,0.45 -0.419,0.998 0.549,1.727 1.778,0.096 1.382,-0.202 1.153,-0.131 C 1.096,-0.391 0.971,-0.589 0.74,-0.762 c -0.769,-0.58 -1.188,-0.332 -2.059,0.825 -0.835,1.108 -0.875,1.718 -0.129,2.281 0.416,0.312 0.906,0.438 1.316,0.171 0.128,-0.083 0.253,-0.22 0.431,-0.457 L -0.474,1.475 -0.605,1.646 C -0.736,1.822 -0.872,1.829 -0.991,1.739 -1.112,1.648 -1.143,1.516 -1.01,1.341 L 0,0 z"
           id="path6751"
           style="fill:#515054;fill-opacity:1;fill-rule:nonzero;stroke:none" />
      </g>
      <g
         transform="translate(425.2979,185.2757)"
         id="g6753">
        <path
           d="M 0,0 -2.211,2.935 -1.438,3.518 0.775,0.583 0,0 z"
           id="path6755"
           style="fill:#515054;fill-opacity:1;fill-rule:nonzero;stroke:none" />
      </g>
      <g
         transform="translate(426.9668,189.1859)"
         id="g6757">
        <path
           d="M 0,0 C 0.249,0.187 0.326,0.316 0.08,0.643 -0.13,0.921 -0.246,0.93 -0.535,0.712 L 0,0 z M 0.529,-2.255 -1.684,0.68 -0.812,1.337 C -0.185,1.809 0.303,1.843 0.817,1.16 1.329,0.482 1.256,0.088 0.546,-0.446 L 0.413,-0.547 1.276,-1.691 0.529,-2.255 z"
           id="path6759"
           style="fill:#515054;fill-opacity:1;fill-rule:nonzero;stroke:none" />
      </g>
      <g
         transform="translate(429.5499,188.4796)"
         id="g6761">
        <path
           d="M 0,0 -2.211,2.935 -0.533,4.199 -0.077,3.594 -0.981,2.913 -0.605,2.415 0.142,2.977 0.617,2.348 -0.13,1.785 0.3,1.213 1.25,1.929 1.725,1.299 0,0 z"
           id="path6763"
           style="fill:#515054;fill-opacity:1;fill-rule:nonzero;stroke:none" />
      </g>
      <g
         transform="translate(431.6998,191.3424)"
         id="g6765">
        <path
           d="m 0,0 c 0.132,-0.176 0.267,-0.183 0.387,-0.093 0.119,0.09 0.151,0.223 0.018,0.399 L 0.186,0.596 -0.008,0.45 -0.42,0.998 0.547,1.727 1.776,0.096 1.381,-0.203 1.153,-0.131 C 1.096,-0.391 0.97,-0.589 0.74,-0.762 -0.029,-1.342 -0.448,-1.094 -1.319,0.063 -2.155,1.171 -2.195,1.781 -1.448,2.344 -1.034,2.656 -0.543,2.782 -0.133,2.515 -0.004,2.432 0.12,2.295 0.299,2.058 L -0.476,1.474 -0.605,1.646 C -0.737,1.822 -0.873,1.828 -0.993,1.738 -1.112,1.648 -1.143,1.516 -1.011,1.341 L 0,0 z"
           id="path6767"
           style="fill:#515054;fill-opacity:1;fill-rule:nonzero;stroke:none" />
      </g>
      <g
         transform="translate(433.9281,191.7782)"
         id="g6769">
        <path
           d="M 0,0 -2.212,2.935 -1.438,3.518 0.773,0.583 0,0 z"
           id="path6771"
           style="fill:#515054;fill-opacity:1;fill-rule:nonzero;stroke:none" />
      </g>
    </g>
  </g>
  <g
     transform="matrix(11.759034,0,0,-11.758826,-4761.6634,2372.5431)"
     id="g6773">
    <g
       clip-path="url(#clipPath6777)"
       id="g6775">
      <g
         transform="translate(435.597,195.6888)"
         id="g6781">
        <path
           d="M 0,0 C 0.248,0.187 0.326,0.316 0.078,0.643 -0.13,0.921 -0.246,0.93 -0.537,0.712 L 0,0 z M 0.528,-2.255 -1.684,0.68 -0.812,1.337 C -0.186,1.809 0.302,1.843 0.816,1.16 1.327,0.482 1.256,0.088 0.546,-0.446 L 0.412,-0.547 1.274,-1.692 0.528,-2.255 z"
           id="path6783"
           style="fill:#515054;fill-opacity:1;fill-rule:nonzero;stroke:none" />
      </g>
      <g
         transform="translate(438.1801,194.9825)"
         id="g6785">
        <path
           d="M 0,0 -2.211,2.935 -0.534,4.199 -0.078,3.594 -0.982,2.913 -0.606,2.415 0.141,2.977 0.615,2.348 -0.132,1.785 0.3,1.213 1.249,1.929 1.723,1.299 0,0 z"
           id="path6787"
           style="fill:#515054;fill-opacity:1;fill-rule:nonzero;stroke:none" />
      </g>
      <g
         transform="translate(440.3286,197.8452)"
         id="g6789">
        <path
           d="m 0,0 c 0.133,-0.176 0.268,-0.183 0.388,-0.093 0.12,0.09 0.15,0.223 0.017,0.399 L 0.187,0.596 -0.007,0.45 -0.42,0.998 0.549,1.727 1.778,0.096 1.381,-0.203 1.153,-0.131 C 1.096,-0.391 0.971,-0.589 0.74,-0.763 -0.029,-1.342 -0.448,-1.094 -1.319,0.063 -2.154,1.171 -2.195,1.781 -1.448,2.344 -1.034,2.656 -0.542,2.782 -0.132,2.515 -0.004,2.432 0.121,2.295 0.299,2.058 L -0.476,1.474 -0.605,1.646 C -0.737,1.822 -0.872,1.828 -0.993,1.738 -1.112,1.648 -1.143,1.516 -1.01,1.341 L 0,0 z"
           id="path6791"
           style="fill:#515054;fill-opacity:1;fill-rule:nonzero;stroke:none" />
      </g>
      <g
         transform="translate(406.7135,165.0522)"
         id="g6793">
        <path
           d="M 0,0 -2.212,2.935 -1.437,3.519 0.774,0.583 0,0 z"
           id="path6795"
           style="fill:#515054;fill-opacity:1;fill-rule:nonzero;stroke:none" />
      </g>
      <g
         transform="translate(408.3824,168.9627)"
         id="g6797">
        <path
           d="M 0,0 C 0.249,0.188 0.326,0.316 0.08,0.643 -0.13,0.921 -0.245,0.93 -0.535,0.712 L 0,0 z M 0.528,-2.255 -1.683,0.68 -0.812,1.337 C -0.185,1.809 0.302,1.843 0.817,1.161 1.328,0.482 1.256,0.088 0.546,-0.446 L 0.413,-0.547 1.275,-1.691 0.528,-2.255 z"
           id="path6799"
           style="fill:#515054;fill-opacity:1;fill-rule:nonzero;stroke:none" />
      </g>
    </g>
  </g>
  <g
     transform="matrix(11.759034,0,0,-11.758826,70.90105,394.03593)"
     id="g6801">
    <path
       d="M 0,0 -2.212,2.934 -0.534,4.199 -0.078,3.594 -0.981,2.913 -0.605,2.414 0.142,2.977 0.616,2.348 -0.131,1.785 0.3,1.213 1.249,1.928 1.723,1.299 0,0 z"
       id="path6803"
       style="fill:#515054;fill-opacity:1;fill-rule:nonzero;stroke:none" />
  </g>
  <g
     transform="matrix(11.759034,0,0,-11.758826,-4761.6634,2372.5431)"
     id="g6805">
    <g
       clip-path="url(#clipPath6809)"
       id="g6807">
      <g
         transform="translate(413.1147,171.1193)"
         id="g6813">
        <path
           d="m 0,0 c 0.133,-0.176 0.268,-0.183 0.387,-0.093 0.121,0.09 0.151,0.223 0.019,0.399 L 0.187,0.596 -0.007,0.45 -0.419,0.998 0.549,1.727 1.778,0.096 1.381,-0.202 1.153,-0.131 c -0.056,-0.26 -0.182,-0.458 -0.412,-0.632 -0.77,-0.579 -1.189,-0.331 -2.06,0.826 -0.835,1.108 -0.875,1.718 -0.129,2.281 0.415,0.312 0.905,0.438 1.316,0.171 C -0.004,2.432 0.121,2.295 0.3,2.058 L -0.475,1.475 -0.605,1.646 C -0.737,1.822 -0.872,1.828 -0.992,1.738 -1.112,1.648 -1.143,1.516 -1.01,1.341 L 0,0 z"
           id="path6815"
           style="fill:#515054;fill-opacity:1;fill-rule:nonzero;stroke:none" />
      </g>
      <g
         transform="translate(415.343,171.5551)"
         id="g6817">
        <path
           d="M 0,0 -2.212,2.935 -1.437,3.519 0.775,0.583 0,0 z"
           id="path6819"
           style="fill:#515054;fill-opacity:1;fill-rule:nonzero;stroke:none" />
      </g>
      <g
         transform="translate(417.0118,175.4656)"
         id="g6821">
        <path
           d="M 0,0 C 0.249,0.188 0.326,0.316 0.08,0.643 -0.13,0.921 -0.245,0.93 -0.535,0.712 L 0,0 z M 0.529,-2.255 -1.683,0.68 -0.812,1.337 C -0.185,1.809 0.302,1.843 0.817,1.161 1.328,0.482 1.256,0.088 0.546,-0.446 L 0.413,-0.547 1.275,-1.691 0.529,-2.255 z"
           id="path6823"
           style="fill:#515054;fill-opacity:1;fill-rule:nonzero;stroke:none" />
      </g>
      <g
         transform="translate(419.5956,174.76)"
         id="g6825">
        <path
           d="M 0,0 -2.212,2.934 -0.534,4.199 -0.078,3.594 -0.981,2.913 -0.605,2.414 0.141,2.977 0.616,2.348 -0.131,1.785 0.3,1.213 1.249,1.928 1.723,1.299 0,0 z"
           id="path6827"
           style="fill:#515054;fill-opacity:1;fill-rule:nonzero;stroke:none" />
      </g>
      <g
         transform="translate(421.7435,177.6222)"
         id="g6829">
        <path
           d="m 0,0 c 0.133,-0.176 0.268,-0.183 0.388,-0.093 0.12,0.09 0.15,0.223 0.019,0.399 L 0.187,0.596 -0.007,0.45 -0.419,0.998 0.549,1.727 1.778,0.096 1.382,-0.202 1.153,-0.131 c -0.055,-0.26 -0.182,-0.458 -0.412,-0.632 -0.77,-0.579 -1.189,-0.331 -2.06,0.826 -0.834,1.108 -0.875,1.718 -0.128,2.281 0.415,0.312 0.905,0.438 1.315,0.171 C -0.004,2.432 0.121,2.295 0.3,2.058 L -0.474,1.475 -0.605,1.646 C -0.736,1.822 -0.871,1.828 -0.991,1.738 -1.111,1.648 -1.142,1.516 -1.009,1.341 L 0,0 z"
           id="path6831"
           style="fill:#515054;fill-opacity:1;fill-rule:nonzero;stroke:none" />
      </g>
      <g
         transform="translate(423.9717,178.058)"
         id="g6833">
        <path
           d="M 0,0 -2.211,2.935 -1.436,3.518 0.775,0.583 0,0 z"
           id="path6835"
           style="fill:#515054;fill-opacity:1;fill-rule:nonzero;stroke:none" />
      </g>
      <g
         transform="translate(425.6407,181.9684)"
         id="g6837">
        <path
           d="M 0,0 C 0.25,0.187 0.326,0.316 0.08,0.643 -0.13,0.921 -0.245,0.93 -0.535,0.712 L 0,0 z m 0.529,-2.255 -2.211,2.935 0.87,0.657 C -0.185,1.808 0.303,1.843 0.817,1.16 1.329,0.482 1.257,0.088 0.546,-0.447 l -0.133,-0.1 0.863,-1.144 -0.747,-0.564 z"
           id="path6839"
           style="fill:#515054;fill-opacity:1;fill-rule:nonzero;stroke:none" />
      </g>
      <g
         transform="translate(428.2238,181.2623)"
         id="g6841">
        <path
           d="M 0,0 -2.211,2.934 -0.533,4.199 -0.077,3.594 -0.981,2.913 -0.605,2.415 0.142,2.977 0.616,2.348 -0.13,1.785 0.3,1.213 1.25,1.929 1.725,1.299 0,0 z"
           id="path6843"
           style="fill:#515054;fill-opacity:1;fill-rule:nonzero;stroke:none" />
      </g>
      <g
         transform="translate(430.3737,184.125)"
         id="g6845">
        <path
           d="m 0,0 c 0.133,-0.177 0.267,-0.183 0.387,-0.093 0.121,0.09 0.151,0.223 0.018,0.399 L 0.186,0.596 -0.007,0.45 -0.42,0.997 0.549,1.727 1.777,0.096 1.381,-0.203 1.153,-0.131 C 1.096,-0.391 0.97,-0.589 0.74,-0.763 -0.029,-1.343 -0.448,-1.094 -1.319,0.062 -2.154,1.171 -2.195,1.78 -1.448,2.343 -1.034,2.656 -0.543,2.782 -0.133,2.515 -0.004,2.432 0.12,2.295 0.299,2.058 L -0.476,1.474 -0.605,1.646 C -0.737,1.822 -0.873,1.828 -0.993,1.738 -1.112,1.648 -1.143,1.516 -1.01,1.34 L 0,0 z"
           id="path6847"
           style="fill:#515054;fill-opacity:1;fill-rule:nonzero;stroke:none" />
      </g>
      <g
         transform="translate(432.6019,184.5609)"
         id="g6849">
        <path
           d="M 0,0 -2.212,2.935 -1.438,3.518 0.773,0.583 0,0 z"
           id="path6851"
           style="fill:#515054;fill-opacity:1;fill-rule:nonzero;stroke:none" />
      </g>
      <g
         transform="translate(434.2708,188.4709)"
         id="g6853">
        <path
           d="M 0,0 C 0.248,0.187 0.326,0.316 0.078,0.643 -0.13,0.921 -0.246,0.93 -0.535,0.712 L 0,0 z M 0.527,-2.254 -1.684,0.68 -0.812,1.337 C -0.185,1.808 0.302,1.843 0.817,1.16 1.327,0.482 1.256,0.088 0.546,-0.447 l -0.134,-0.1 0.862,-1.144 -0.747,-0.563 z"
           id="path6855"
           style="fill:#515054;fill-opacity:1;fill-rule:nonzero;stroke:none" />
      </g>
    </g>
  </g>
  <g
     transform="matrix(11.759034,0,0,-11.758826,375.31655,164.6471)"
     id="g6857">
    <path
       d="M 0,0 -2.211,2.934 -0.534,4.199 -0.078,3.593 -0.981,2.913 -0.605,2.415 0.141,2.977 0.615,2.348 -0.13,1.785 0.3,1.213 1.249,1.928 1.723,1.299 0,0 z"
       id="path6859"
       style="fill:#515054;fill-opacity:1;fill-rule:nonzero;stroke:none" />
  </g>
  <g
     transform="matrix(11.759034,0,0,-11.758826,-4761.6634,2372.5431)"
     id="g6861">
    <g
       clip-path="url(#clipPath6865)"
       id="g6863">
      <g
         transform="translate(439.0024,190.6275)"
         id="g6869">
        <path
           d="m 0,0 c 0.133,-0.177 0.268,-0.183 0.388,-0.093 0.12,0.09 0.15,0.223 0.019,0.399 L 0.187,0.596 -0.007,0.45 -0.419,0.997 0.549,1.727 1.778,0.096 1.381,-0.203 1.153,-0.131 c -0.055,-0.26 -0.182,-0.458 -0.412,-0.632 -0.77,-0.58 -1.189,-0.331 -2.06,0.825 -0.835,1.109 -0.876,1.719 -0.129,2.281 0.416,0.313 0.906,0.439 1.316,0.172 0.128,-0.083 0.253,-0.22 0.431,-0.457 L -0.474,1.474 -0.605,1.646 C -0.736,1.822 -0.872,1.828 -0.991,1.738 -1.111,1.648 -1.143,1.516 -1.01,1.34 L 0,0 z"
           id="path6871"
           style="fill:#515054;fill-opacity:1;fill-rule:nonzero;stroke:none" />
      </g>
      <g
         transform="translate(415.6851,168.2479)"
         id="g6873">
        <path
           d="M 0,0 C 0.249,0.187 0.326,0.316 0.08,0.643 -0.13,0.921 -0.245,0.93 -0.535,0.711 L 0,0 z M 0.529,-2.255 -1.683,0.68 -0.811,1.337 C -0.185,1.809 0.303,1.843 0.817,1.16 1.329,0.482 1.256,0.088 0.547,-0.447 L 0.413,-0.548 1.276,-1.692 0.529,-2.255 z"
           id="path6875"
           style="fill:#515054;fill-opacity:1;fill-rule:nonzero;stroke:none" />
      </g>
      <g
         transform="translate(418.2689,167.5417)"
         id="g6877">
        <path
           d="M 0,0 -2.212,2.935 -0.534,4.199 -0.078,3.594 -0.981,2.913 -0.605,2.414 0.141,2.977 0.616,2.348 -0.131,1.785 0.3,1.213 1.25,1.929 1.724,1.299 0,0 z"
           id="path6879"
           style="fill:#515054;fill-opacity:1;fill-rule:nonzero;stroke:none" />
      </g>
    </g>
  </g>
  <g
     transform="matrix(11.759034,0,0,-11.758826,-4761.6634,2372.5431)"
     id="g6881">
    <g
       clip-path="url(#clipPath6885)"
       id="g6883">
      <g
         transform="translate(420.4181,170.4044)"
         id="g6889">
        <path
           d="m 0,0 c 0.132,-0.176 0.267,-0.183 0.387,-0.093 0.12,0.09 0.15,0.223 0.018,0.399 L 0.187,0.595 -0.007,0.45 -0.42,0.997 0.548,1.727 1.777,0.096 1.381,-0.203 1.153,-0.132 C 1.096,-0.391 0.971,-0.589 0.739,-0.763 -0.03,-1.343 -0.448,-1.094 -1.32,0.062 -2.155,1.171 -2.195,1.781 -1.448,2.343 -1.034,2.656 -0.543,2.782 -0.132,2.515 -0.004,2.432 0.12,2.295 0.299,2.058 L -0.476,1.474 -0.605,1.646 C -0.737,1.822 -0.872,1.828 -0.993,1.738 -1.112,1.648 -1.143,1.516 -1.011,1.341 L 0,0 z"
           id="path6891"
           style="fill:#515054;fill-opacity:1;fill-rule:nonzero;stroke:none" />
      </g>
      <g
         transform="translate(422.6458,170.8402)"
         id="g6893">
        <path
           d="M 0,0 -2.211,2.935 -1.438,3.519 0.775,0.583 0,0 z"
           id="path6895"
           style="fill:#515054;fill-opacity:1;fill-rule:nonzero;stroke:none" />
      </g>
      <g
         transform="translate(424.3145,174.7508)"
         id="g6897">
        <path
           d="M 0,0 C 0.248,0.187 0.326,0.316 0.08,0.643 -0.13,0.921 -0.246,0.93 -0.535,0.711 L 0,0 z M 0.529,-2.255 -1.684,0.68 -0.812,1.337 C -0.185,1.809 0.303,1.843 0.817,1.16 1.329,0.482 1.256,0.088 0.546,-0.447 L 0.412,-0.548 1.276,-1.692 0.529,-2.255 z"
           id="path6899"
           style="fill:#515054;fill-opacity:1;fill-rule:nonzero;stroke:none" />
      </g>
      <g
         transform="translate(426.8977,174.0445)"
         id="g6901">
        <path
           d="M 0,0 -2.211,2.935 -0.533,4.199 -0.077,3.594 -0.981,2.913 -0.605,2.414 0.142,2.977 0.617,2.348 -0.13,1.785 0.3,1.212 1.25,1.929 1.725,1.299 0,0 z"
           id="path6903"
           style="fill:#515054;fill-opacity:1;fill-rule:nonzero;stroke:none" />
      </g>
      <g
         transform="translate(429.0475,176.9073)"
         id="g6905">
        <path
           d="m 0,0 c 0.132,-0.176 0.267,-0.183 0.387,-0.093 0.119,0.09 0.151,0.223 0.018,0.399 L 0.186,0.595 -0.008,0.45 -0.42,0.997 0.547,1.727 1.777,0.096 1.381,-0.203 1.153,-0.132 C 1.096,-0.391 0.97,-0.589 0.74,-0.763 -0.029,-1.343 -0.448,-1.094 -1.319,0.062 -2.155,1.171 -2.195,1.781 -1.448,2.343 -1.034,2.656 -0.543,2.782 -0.133,2.515 -0.004,2.432 0.12,2.295 0.299,2.058 L -0.476,1.474 -0.605,1.646 C -0.737,1.822 -0.873,1.828 -0.993,1.738 -1.112,1.648 -1.143,1.516 -1.011,1.341 L 0,0 z"
           id="path6907"
           style="fill:#515054;fill-opacity:1;fill-rule:nonzero;stroke:none" />
      </g>
      <g
         transform="translate(431.2746,177.3424)"
         id="g6909">
        <path
           d="M 0,0 -2.211,2.935 -1.436,3.519 0.775,0.584 0,0 z"
           id="path6911"
           style="fill:#515054;fill-opacity:1;fill-rule:nonzero;stroke:none" />
      </g>
      <g
         transform="translate(432.9448,181.2536)"
         id="g6913">
        <path
           d="M 0,0 C 0.249,0.187 0.326,0.316 0.078,0.643 -0.13,0.921 -0.246,0.93 -0.537,0.711 L 0,0 z M 0.528,-2.255 -1.684,0.68 -0.813,1.337 C -0.186,1.808 0.302,1.843 0.816,1.16 1.327,0.481 1.256,0.088 0.545,-0.448 l -0.133,-0.1 0.862,-1.144 -0.746,-0.563 z"
           id="path6915"
           style="fill:#515054;fill-opacity:1;fill-rule:nonzero;stroke:none" />
      </g>
    </g>
  </g>
  <g
     transform="matrix(11.759034,0,0,-11.758826,359.72406,249.52577)"
     id="g6917">
    <path
       d="M 0,0 -2.212,2.935 -0.534,4.199 -0.078,3.594 -0.982,2.914 -0.606,2.415 0.141,2.978 0.615,2.348 -0.132,1.786 0.299,1.213 1.249,1.929 1.723,1.299 0,0 z"
       id="path6919"
       style="fill:#515054;fill-opacity:1;fill-rule:nonzero;stroke:none" />
  </g>
  <g
     transform="matrix(11.759034,0,0,-11.758826,-4761.6634,2372.5431)"
     id="g6921">
    <g
       clip-path="url(#clipPath6925)"
       id="g6923">
      <g
         transform="translate(437.6764,183.4095)"
         id="g6929">
        <path
           d="m 0,0 c 0.133,-0.176 0.267,-0.183 0.387,-0.092 0.121,0.09 0.151,0.222 0.018,0.398 L 0.186,0.596 -0.007,0.45 -0.42,0.997 0.549,1.727 1.778,0.096 1.381,-0.203 1.153,-0.131 C 1.096,-0.391 0.971,-0.589 0.74,-0.762 c -0.769,-0.581 -1.188,-0.332 -2.059,0.825 -0.835,1.108 -0.876,1.718 -0.129,2.28 0.414,0.313 0.905,0.439 1.316,0.172 0.128,-0.083 0.253,-0.22 0.431,-0.457 L -0.476,1.474 -0.604,1.646 C -0.737,1.822 -0.873,1.829 -0.993,1.739 -1.112,1.648 -1.143,1.517 -1.01,1.341 L 0,0 z"
           id="path6931"
           style="fill:#515054;fill-opacity:1;fill-rule:nonzero;stroke:none" />
      </g>
      <g
         transform="translate(439.9047,183.8453)"
         id="g6933">
        <path
           d="M 0,0 -2.211,2.935 -1.438,3.519 0.775,0.584 0,0 z"
           id="path6935"
           style="fill:#515054;fill-opacity:1;fill-rule:nonzero;stroke:none" />
      </g>
      <g
         transform="translate(422.9886,167.5331)"
         id="g6937">
        <path
           d="M 0,0 C 0.248,0.187 0.325,0.316 0.08,0.643 -0.13,0.921 -0.246,0.93 -0.536,0.711 L 0,0 z M 0.529,-2.255 -1.684,0.68 -0.812,1.337 C -0.185,1.809 0.303,1.843 0.817,1.16 1.329,0.482 1.257,0.088 0.546,-0.447 l -0.133,-0.1 0.863,-1.145 -0.747,-0.563 z"
           id="path6939"
           style="fill:#515054;fill-opacity:1;fill-rule:nonzero;stroke:none" />
      </g>
      <g
         transform="translate(425.5717,166.8268)"
         id="g6941">
        <path
           d="M 0,0 -2.211,2.935 -0.533,4.199 -0.077,3.594 -0.981,2.913 -0.605,2.415 0.142,2.978 0.616,2.348 -0.13,1.785 0.3,1.213 1.25,1.929 1.725,1.299 0,0 z"
           id="path6943"
           style="fill:#515054;fill-opacity:1;fill-rule:nonzero;stroke:none" />
      </g>
    </g>
  </g>
  <g
     transform="matrix(11.759034,0,0,-11.758826,-4761.6634,2372.5431)"
     id="g6945">
    <g
       clip-path="url(#clipPath6949)"
       id="g6947">
      <g
         transform="translate(427.7215,169.6897)"
         id="g6953">
        <path
           d="m 0,0 c 0.132,-0.176 0.267,-0.183 0.387,-0.093 0.121,0.09 0.151,0.223 0.018,0.399 L 0.186,0.595 -0.007,0.45 -0.42,0.997 0.547,1.727 1.777,0.096 1.381,-0.203 1.153,-0.131 C 1.096,-0.391 0.97,-0.589 0.74,-0.763 -0.029,-1.342 -0.448,-1.094 -1.319,0.062 -2.154,1.171 -2.195,1.78 -1.448,2.343 -1.034,2.656 -0.543,2.782 -0.133,2.515 -0.004,2.432 0.12,2.295 0.299,2.058 L -0.476,1.474 -0.605,1.646 C -0.737,1.822 -0.873,1.828 -0.993,1.738 -1.112,1.648 -1.143,1.516 -1.011,1.341 L 0,0 z"
           id="path6955"
           style="fill:#515054;fill-opacity:1;fill-rule:nonzero;stroke:none" />
      </g>
      <g
         transform="translate(429.9485,170.1248)"
         id="g6957">
        <path
           d="M 0,0 -2.211,2.935 -1.436,3.518 0.775,0.584 0,0 z"
           id="path6959"
           style="fill:#515054;fill-opacity:1;fill-rule:nonzero;stroke:none" />
      </g>
      <g
         transform="translate(431.6187,174.0359)"
         id="g6961">
        <path
           d="M 0,0 C 0.249,0.187 0.326,0.316 0.078,0.643 -0.13,0.921 -0.246,0.93 -0.537,0.711 L 0,0 z M 0.528,-2.255 -1.684,0.68 -0.813,1.337 C -0.186,1.808 0.302,1.843 0.816,1.16 1.327,0.481 1.256,0.088 0.546,-0.447 l -0.134,-0.1 0.862,-1.145 -0.746,-0.563 z"
           id="path6963"
           style="fill:#515054;fill-opacity:1;fill-rule:nonzero;stroke:none" />
      </g>
      <g
         transform="translate(434.2018,173.329)"
         id="g6965">
        <path
           d="M 0,0 -2.212,2.935 -0.534,4.2 -0.078,3.594 -0.982,2.914 -0.606,2.416 0.141,2.978 0.615,2.348 -0.132,1.786 0.3,1.214 1.249,1.929 1.723,1.3 0,0 z"
           id="path6967"
           style="fill:#515054;fill-opacity:1;fill-rule:nonzero;stroke:none" />
      </g>
    </g>
  </g>
  <g
     transform="matrix(11.759034,0,0,-11.758826,-4761.6634,2372.5431)"
     id="g6969">
    <g
       clip-path="url(#clipPath6973)"
       id="g6971">
      <g
         transform="translate(436.3503,176.1924)"
         id="g6977">
        <path
           d="m 0,0 c 0.133,-0.177 0.268,-0.183 0.388,-0.093 0.12,0.09 0.15,0.222 0.017,0.399 L 0.187,0.595 -0.007,0.449 -0.42,0.997 0.549,1.727 1.778,0.096 1.381,-0.203 1.153,-0.131 C 1.096,-0.391 0.971,-0.589 0.74,-0.763 c -0.769,-0.58 -1.188,-0.331 -2.059,0.825 -0.835,1.109 -0.876,1.719 -0.129,2.281 0.414,0.313 0.905,0.439 1.316,0.172 0.128,-0.083 0.253,-0.22 0.431,-0.457 L -0.476,1.474 -0.605,1.646 C -0.737,1.822 -0.873,1.828 -0.993,1.738 -1.112,1.648 -1.143,1.516 -1.01,1.34 L 0,0 z"
           id="path6979"
           style="fill:#515054;fill-opacity:1;fill-rule:nonzero;stroke:none" />
      </g>
      <g
         transform="translate(438.5786,176.6276)"
         id="g6981">
        <path
           d="M 0,0 -2.212,2.935 -1.438,3.518 0.775,0.584 0,0 z"
           id="path6983"
           style="fill:#515054;fill-opacity:1;fill-rule:nonzero;stroke:none" />
      </g>
      <g
         transform="translate(440.2476,180.5387)"
         id="g6985">
        <path
           d="M 0,0 C 0.249,0.187 0.326,0.316 0.08,0.643 -0.13,0.921 -0.246,0.93 -0.536,0.711 L 0,0 z M 0.529,-2.255 -1.684,0.68 -0.812,1.337 C -0.185,1.808 0.303,1.843 0.817,1.16 1.327,0.481 1.257,0.088 0.546,-0.447 l -0.133,-0.1 0.863,-1.145 -0.747,-0.563 z"
           id="path6987"
           style="fill:#515054;fill-opacity:1;fill-rule:nonzero;stroke:none" />
      </g>
      <g
         transform="translate(430.7921,167.1948)"
         id="g6989">
        <path
           d="M 0,0 C 0.25,0.188 0.326,0.316 0.08,0.642 -0.13,0.921 -0.246,0.93 -0.535,0.712 L 0,0 z m 0.529,-2.255 -2.211,2.935 0.87,0.657 C -0.185,1.809 0.303,1.843 0.817,1.161 1.329,0.482 1.257,0.088 0.546,-0.447 l -0.133,-0.1 0.863,-1.145 -0.747,-0.563 z"
           id="path6991"
           style="fill:#515054;fill-opacity:1;fill-rule:nonzero;stroke:none" />
      </g>
      <g
         transform="translate(433.3767,166.4886)"
         id="g6993">
        <path
           d="m 0,0 -2.212,2.935 1.678,1.264 0.456,-0.605 -0.904,-0.68 0.376,-0.5 L 0.141,2.977 0.615,2.348 -0.132,1.785 0.299,1.213 1.249,1.929 1.723,1.3 0,0 z"
           id="path6995"
           style="fill:#515054;fill-opacity:1;fill-rule:nonzero;stroke:none" />
      </g>
    </g>
  </g>
  <g
     transform="matrix(11.759034,0,0,-11.758826,-4761.6634,2372.5431)"
     id="g6997">
    <g
       clip-path="url(#clipPath7001)"
       id="g6999">
      <g
         transform="translate(435.5251,169.3508)"
         id="g7005">
        <path
           d="m 0,0 c 0.132,-0.175 0.267,-0.183 0.387,-0.092 0.119,0.09 0.151,0.222 0.018,0.398 L 0.186,0.597 -0.008,0.45 -0.42,0.998 0.549,1.727 1.778,0.097 1.381,-0.202 1.153,-0.13 C 1.096,-0.391 0.97,-0.589 0.74,-0.762 c -0.769,-0.58 -1.188,-0.332 -2.059,0.826 -0.836,1.107 -0.876,1.717 -0.129,2.28 0.414,0.312 0.905,0.438 1.315,0.171 C -0.004,2.432 0.12,2.296 0.299,2.058 L -0.476,1.475 -0.605,1.646 C -0.737,1.822 -0.873,1.83 -0.993,1.739 -1.112,1.649 -1.143,1.517 -1.011,1.341 L 0,0 z"
           id="path7007"
           style="fill:#515054;fill-opacity:1;fill-rule:nonzero;stroke:none" />
      </g>
    </g>
  </g>
  <g
     transform="matrix(11.759034,0,0,-11.758826,385.89384,376.05075)"
     id="g7009">
    <path
       d="M 0,0 -2.212,2.935 -1.438,3.519 0.773,0.584 0,0 z"
       id="path7011"
       style="fill:#515054;fill-opacity:1;fill-rule:nonzero;stroke:none" />
  </g>
  <g
     transform="matrix(11.759034,0,0,-11.758826,-4761.6634,2372.5431)"
     id="g7013">
    <g
       clip-path="url(#clipPath7017)"
       id="g7015">
      <g
         transform="translate(439.4224,173.6977)"
         id="g7021">
        <path
           d="M 0,0 C 0.249,0.188 0.326,0.316 0.078,0.642 -0.13,0.921 -0.246,0.93 -0.535,0.712 L 0,0 z M 0.529,-2.255 -1.684,0.68 -0.812,1.337 C -0.185,1.809 0.302,1.843 0.816,1.161 1.327,0.482 1.256,0.088 0.546,-0.447 l -0.134,-0.1 0.864,-1.145 -0.747,-0.563 z"
           id="path7023"
           style="fill:#515054;fill-opacity:1;fill-rule:nonzero;stroke:none" />
      </g>
    </g>
  </g>
  <g
     transform="matrix(11.759034,0,0,-11.758826,-4761.6634,2372.5431)"
     id="g7025">
    <g
       clip-path="url(#clipPath7029)"
       id="g7027">
      <g
         transform="translate(430.2827,191.0856)"
         id="g7033">
        <path
           d="m 0,0 c 0,-4.584 -3.715,-8.299 -8.299,-8.299 -4.584,0 -8.299,3.715 -8.299,8.299 0,4.583 3.715,8.299 8.299,8.299 C -3.715,8.299 0,4.583 0,0"
           id="path7035"
           style="fill:#ffffff;fill-opacity:1;fill-rule:nonzero;stroke:none" />
      </g>
      <g
         transform="translate(423.623,197.3011)"
         id="g7037">
        <path
           d="M 0,0 C 0.017,0 0.033,0.001 0.05,0.002 M 0.1,0.004 C 0.083,0.004 0.066,0.002 0.05,0.002 m -0.256,-0.01 C -1.658,-0.084 -3.162,-0.464 -4.52,-1.193 m 4.629,1.197 -0.009,0 M 4.807,-1.185 C 3.603,-0.381 1.907,0.044 0.109,0.004 M -0.206,-0.008 C -0.137,-0.005 -0.069,-0.002 0,0 m -8.949,-6.863 c -0.204,-0.769 -0.334,-1.607 -0.373,-2.52 m 2.108,5.984 c 0.765,0.938 1.689,1.668 2.694,2.206 m -2.694,-2.206 c -0.765,-0.939 -1.37,-2.087 -1.735,-3.464 m 1.465,5.622 c -0.089,-0.708 0.012,-1.443 0.27,-2.158 M 4.413,-6.761 C 3.675,-7.324 2.774,-7.747 1.788,-7.981 m -9.002,4.582 c 0.369,-1.016 1.054,-1.991 1.968,-2.794 m 3.429,-1.783 c -0.013,0.003 -0.026,0.005 -0.039,0.009 -1.302,0.32 -2.463,0.959 -3.39,1.774 m 3.429,-1.783 c 1.234,-0.298 2.475,-0.275 3.605,-0.005 m -9.272,6.74 c 0.019,0.153 0.045,0.306 0.082,0.456 0.057,0.234 0.139,0.458 0.238,0.674 M 5.993,-4.865 c 0.117,0.25 0.211,0.51 0.277,0.777 0.002,0.008 0.003,0.016 0.006,0.024 M 4.413,-6.761 c 0.691,0.524 1.239,1.169 1.58,1.896 m -6.758,0.837 c 0.075,-0.023 0.149,-0.049 0.226,-0.069 0.681,-0.182 1.462,-0.209 2.217,-0.093 m -4.815,1.439 c -0.581,0.477 -1.051,1.016 -1.383,1.558 M 4.425,-2.789 C 4.163,-3.127 3.806,-3.409 3.393,-3.634 M 1.678,-4.19 c 0.613,0.093 1.207,0.28 1.715,0.556 m 1.032,0.845 c 0.324,0.418 0.502,0.922 0.47,1.503 m -8.032,-1.465 c 0.66,-0.543 1.463,-0.999 2.372,-1.277 M -4.983,1.287 C -4.99,1.267 -4.995,1.247 -5.003,1.228 m 0.483,-2.421 c -0.27,0.44 -0.453,0.881 -0.528,1.285 -0.001,0.003 -0.001,0.007 -0.001,0.009 m 0.046,1.127 C -5.106,0.917 -5.13,0.545 -5.049,0.101 m 2.129,-11.765 c -1.423,0.361 -2.684,1.017 -3.713,1.855 m 3.713,-1.855 c 0.022,-0.005 0.043,-0.012 0.065,-0.017 1.396,-0.345 2.777,-0.395 4.04,-0.194 m -10.573,8.551 c 0.01,0.048 0.019,0.097 0.03,0.145 m 2.725,-6.63 c -1.03,0.838 -1.827,1.858 -2.316,2.946 m 0,0 c -0.516,1.148 -0.69,2.372 -0.439,3.539 m 13.744,-7.361 c 0.769,0.509 1.399,1.152 1.837,1.907 m -1.837,-1.907 c -0.897,-0.592 -1.982,-1.002 -3.171,-1.19 M -5.134,1.218 C -5.877,0.876 -6.559,0.426 -7.164,-0.111 m 2.181,1.398 C -5.034,1.264 -5.084,1.241 -5.134,1.218 M 2.865,0.612 c 0.779,-0.513 1.466,-1.156 2.03,-1.898 m 1.298,-7.492 c 0.207,0.651 0.334,1.339 0.373,2.049 m -1.671,5.443 c 0.624,-0.819 1.096,-1.76 1.381,-2.778 m -15.664,0.74 c 0.477,1.245 1.246,2.343 2.224,3.213 m 13.73,-6.618 c 0.008,0.149 0.013,0.298 0.013,0.449 0,0.767 -0.108,1.51 -0.303,2.216 m -15.664,0.74 c -0.352,-0.918 -0.547,-1.915 -0.547,-2.956 0,-4.56 3.696,-8.257 8.257,-8.257 2.178,0 4.159,0.845 5.634,2.224 m 2.237,3.535 C 5.759,-10.145 4.98,-11.357 3.956,-12.313 m -8.939,13.6 c 1.012,0.442 2.129,0.689 3.305,0.689 1.679,0 3.239,-0.502 4.543,-1.364 m -7.868,0.616 c 1.849,0.125 3.571,-0.326 5.032,-1.213 m 0,0 C 0.036,0.01 0.043,0.006 0.05,0.002 M 0.159,-0.064 C 0.137,-0.051 0.116,-0.038 0.094,-0.025 M 0.05,0.002 c 0.014,-0.009 0.029,-0.018 0.044,-0.027 m 4.319,-6.736 c -0.18,1.126 -0.53,2.179 -1.02,3.127 m 0,0 c -0.728,1.408 -1.765,2.582 -3.017,3.427 m 3.98,-10.478 c 0.247,1.371 0.253,2.692 0.057,3.924 M 0.376,-0.207 C 0.304,-0.159 0.233,-0.11 0.159,-0.064 M -5.003,1.228 C -5.046,1.224 -5.09,1.222 -5.134,1.218 m 9.49,-11.903 c -0.097,-0.536 -0.228,-1.079 -0.4,-1.628 M 0.029,0.015 C 0.019,0.009 0.01,0.005 0,0 M 0.029,0.015 C 0.046,0.023 0.063,0.033 0.082,0.041 M 0.108,0.054 C 0.1,0.05 0.09,0.046 0.082,0.041 m -6.715,-9.85 c 0.331,1.157 0.799,2.402 1.387,3.616 m 2.109,3.442 c -0.81,-1.034 -1.52,-2.222 -2.109,-3.442 m 5.157,6.146 c -1.124,-0.599 -2.148,-1.556 -3.048,-2.704 m 6.002,3.363 c 0.009,0 0.018,0 0.027,-0.001 M 0,0 c -0.029,-0.016 -0.06,-0.03 -0.089,-0.047 m 2.84,0.78 C 1.783,0.811 0.975,0.48 0.108,0.054 m -6.741,-9.863 c -0.275,-0.961 -0.455,-1.86 -0.53,-2.628 M 1.678,-4.19 C 1.455,-2.649 0.989,-1.253 0.225,-0.152 M 0.109,0.004 C 0.106,0.007 0.104,0.011 0.102,0.014 m -2.369,1.94 C -1.242,1.569 -0.545,0.873 0.082,0.041 m 1.706,-8.022 c 0.09,1.302 0.064,2.59 -0.11,3.791 M 0.082,0.041 C 0.088,0.033 0.095,0.023 0.102,0.014 m 1.083,-11.889 c 0.303,1.263 0.512,2.585 0.603,3.894 m -1.292,-6.251 c 0.263,0.748 0.495,1.54 0.689,2.357 M 0.159,-0.064 c 0.021,-0.03 0.045,-0.058 0.066,-0.088 m -0.066,0.088 c -0.016,0.023 -0.033,0.045 -0.05,0.068 m -0.315,-0.012 c 0.039,-0.012 0.078,-0.026 0.117,-0.039 m -0.117,0.039 C -1.79,0.48 -3.474,0.584 -5.049,0.101 m 5.425,-0.308 c -0.051,0.018 -0.1,0.037 -0.151,0.055 m 4.2,-2.637 c -1.09,1.081 -2.508,2.007 -4.049,2.582 m -0.151,0.055 c -0.048,0.017 -0.097,0.034 -0.146,0.05 m 5.914,-4.763 c 0.324,-0.621 0.523,-1.252 0.573,-1.864 m -14.05,5.488 c -0.72,-0.61 -1.381,-1.405 -1.953,-2.418 m 13.862,0.87 c 0.656,-0.65 1.194,-1.356 1.568,-2.076 m -13.477,3.624 c 0.757,0.643 1.58,1.08 2.435,1.342 m 4.96,-0.148 c 0.056,-0.017 0.112,-0.035 0.168,-0.055 m -1.896,-7.874 c -0.37,-1.304 -0.75,-2.576 -1.103,-3.688 M 0.102,0.014 C 0.101,0.011 0.1,0.007 0.1,0.004 M 0.094,-0.025 C 0.089,-0.051 0.085,-0.076 0.079,-0.102 m -0.844,-3.926 c 0.378,1.526 0.683,2.908 0.839,3.901 0.002,0.008 0.004,0.017 0.005,0.025 M 0.224,1.702 C 0.258,1.445 0.215,0.674 0.108,0.054 m -1.925,-8.03 c 0.375,1.327 0.739,2.687 1.052,3.948 m -2.155,-7.636 c -0.325,-1.021 -0.627,-1.909 -0.877,-2.563 m 3.891,14.202 c 0.002,0.009 0.004,0.019 0.006,0.029 m 0.008,0.05 C 0.106,0.041 0.103,0.028 0.102,0.014"
           id="path7039"
           style="fill:none;stroke:#000000;stroke-width:0.65700001;stroke-linecap:butt;stroke-linejoin:miter;stroke-miterlimit:4;stroke-opacity:1;stroke-dasharray:none" />
      </g>
      <path
         d="m 416.672,175.661 -5.684,0 0,3.659 5.684,0 0,-3.659 z"
         id="path7041"
         style="fill:#ffffff;fill-opacity:1;fill-rule:nonzero;stroke:none" />
      <path
         d="m 424.736,175.661 -5.684,0 0,3.659 5.684,0 0,-3.659 z"
         id="path7043"
         style="fill:#ffffff;fill-opacity:1;fill-rule:nonzero;stroke:none" />
      <path
         d="m 411.115,175.962 5.271,0 0,3.158 -5.271,0 0,-3.158 z m -0.29,-0.581 c -0.076,0 -0.151,0.031 -0.204,0.085 -0.055,0.055 -0.086,0.13 -0.086,0.205 l 0,3.739 c 0,0.078 0.031,0.153 0.086,0.207 0.053,0.053 0.128,0.084 0.204,0.084 l 5.851,0 c 0.076,0 0.15,-0.031 0.205,-0.085 0.054,-0.053 0.085,-0.128 0.085,-0.206 l 0,-3.739 c 0,-0.075 -0.031,-0.15 -0.085,-0.205 -0.055,-0.054 -0.129,-0.085 -0.205,-0.085 l -5.851,0 z"
         id="path7045"
         style="fill:#000000;fill-opacity:1;fill-rule:nonzero;stroke:none" />
      <path
         d="m 412.989,175.234 1.522,0 0,-0.583 -1.522,0 0,0.583 z"
         id="path7047"
         style="fill:#000000;fill-opacity:1;fill-rule:nonzero;stroke:none" />
      <g
         transform="translate(411.4659,174.2146)"
         id="g7049">
        <path
           d="m 0,0 c -0.084,0 -0.152,0.066 -0.152,0.145 0,0.082 0.068,0.146 0.152,0.146 l 4.57,0 C 4.653,0.291 4.721,0.227 4.721,0.145 4.721,0.066 4.653,0 4.57,0 L 0,0 z"
           id="path7051"
           style="fill:#000000;fill-opacity:1;fill-rule:nonzero;stroke:none" />
      </g>
      <path
         d="m 433.014,175.661 -5.684,0 0,3.659 5.684,0 0,-3.659 z"
         id="path7053"
         style="fill:#ffffff;fill-opacity:1;fill-rule:nonzero;stroke:none" />
      <path
         d="m 419.309,175.961 5.27,0 0,3.158 -5.27,0 0,-3.158 z m -0.29,-0.581 c -0.076,0 -0.151,0.032 -0.205,0.085 -0.054,0.055 -0.085,0.131 -0.085,0.205 l 0,3.74 c 0,0.077 0.031,0.152 0.085,0.206 0.054,0.053 0.129,0.085 0.205,0.085 l 5.851,0 c 0.076,0 0.151,-0.032 0.204,-0.085 0.054,-0.054 0.085,-0.129 0.085,-0.206 l 0,-3.74 c 0,-0.074 -0.031,-0.15 -0.085,-0.205 -0.053,-0.053 -0.128,-0.085 -0.204,-0.085 l -5.851,0 z"
         id="path7055"
         style="fill:#000000;fill-opacity:1;fill-rule:nonzero;stroke:none" />
      <path
         d="m 421.184,175.234 1.522,0 0,-0.583 -1.522,0 0,0.583 z"
         id="path7057"
         style="fill:#000000;fill-opacity:1;fill-rule:nonzero;stroke:none" />
      <g
         transform="translate(419.6604,174.2146)"
         id="g7059">
        <path
           d="m 0,0 c -0.085,0 -0.152,0.066 -0.152,0.145 0,0.082 0.067,0.146 0.152,0.146 l 4.57,0 C 4.654,0.291 4.721,0.227 4.721,0.145 4.721,0.066 4.654,0 4.57,0 L 0,0 z"
           id="path7061"
           style="fill:#000000;fill-opacity:1;fill-rule:nonzero;stroke:none" />
      </g>
      <path
         d="m 427.504,175.962 5.269,0 0,3.158 -5.269,0 0,-3.158 z m -0.291,-0.581 c -0.077,0 -0.151,0.031 -0.205,0.085 -0.054,0.055 -0.085,0.13 -0.085,0.205 l 0,3.739 c 0,0.078 0.031,0.153 0.085,0.207 0.054,0.053 0.128,0.084 0.205,0.084 l 5.851,0 c 0.077,0 0.15,-0.031 0.205,-0.085 0.054,-0.053 0.084,-0.128 0.084,-0.206 l 0,-3.739 c 0,-0.075 -0.03,-0.15 -0.084,-0.205 -0.055,-0.054 -0.128,-0.085 -0.205,-0.085 l -5.851,0 z"
         id="path7063"
         style="fill:#000000;fill-opacity:1;fill-rule:nonzero;stroke:none" />
      <path
         d="m 429.378,175.234 1.521,0 0,-0.583 -1.521,0 0,0.583 z"
         id="path7065"
         style="fill:#000000;fill-opacity:1;fill-rule:nonzero;stroke:none" />
      <g
         transform="translate(427.8537,174.2146)"
         id="g7067">
        <path
           d="m 0,0 c -0.084,0 -0.151,0.066 -0.151,0.145 0,0.082 0.067,0.146 0.151,0.146 l 4.57,0 C 4.654,0.291 4.722,0.227 4.722,0.145 4.722,0.066 4.654,0 4.57,0 L 0,0 z"
           id="path7069"
           style="fill:#000000;fill-opacity:1;fill-rule:nonzero;stroke:none" />
      </g>
      <g
         transform="translate(413.7505,179.7009)"
         id="g7071">
        <path
           d="m 0,0 0,1.163 16.389,0 0,-1.163 M 8.194,2.909 8.194,0"
           id="path7073"
           style="fill:none;stroke:#000000;stroke-width:0.65700001;stroke-linecap:butt;stroke-linejoin:miter;stroke-miterlimit:4;stroke-opacity:1;stroke-dasharray:none" />
      </g>
      <g
         transform="translate(430.2827,191.0853)"
         id="g7075">
        <path
           d="m 0,0 c 0,-4.584 -3.715,-8.3 -8.299,-8.3 -4.584,0 -8.299,3.716 -8.299,8.3 0,4.584 3.715,8.299 8.299,8.299 C -3.715,8.299 0,4.584 0,0"
           id="path7077"
           style="fill:#000000;fill-opacity:1;fill-rule:nonzero;stroke:none" />
      </g>
      <g
         transform="translate(423.623,197.3008)"
         id="g7079">
        <path
           d="M 0,0 C 0.017,0.001 0.033,0.001 0.05,0.002 M 0.1,0.004 C 0.083,0.004 0.066,0.002 0.05,0.002 m -0.256,-0.01 C -1.658,-0.084 -3.162,-0.464 -4.52,-1.193 m 4.629,1.197 -0.009,0 m 4.707,-1.189 c -1.204,0.804 -2.9,1.23 -4.698,1.189 M -0.206,-0.008 C -0.137,-0.005 -0.069,-0.002 0,0 m -8.949,-6.862 c -0.204,-0.769 -0.334,-1.607 -0.373,-2.521 m 2.108,5.984 c 0.765,0.938 1.689,1.668 2.694,2.206 m -2.694,-2.206 c -0.765,-0.938 -1.37,-2.086 -1.735,-3.463 m 1.465,5.622 c -0.089,-0.709 0.012,-1.443 0.27,-2.159 M 4.413,-6.761 C 3.675,-7.323 2.774,-7.746 1.788,-7.981 m -9.002,4.582 c 0.369,-1.016 1.054,-1.991 1.968,-2.794 m 3.429,-1.783 c -0.013,0.004 -0.026,0.006 -0.039,0.009 -1.302,0.321 -2.463,0.959 -3.39,1.774 m 3.429,-1.783 c 1.234,-0.297 2.475,-0.275 3.605,-0.005 m -9.272,6.741 c 0.019,0.152 0.045,0.305 0.082,0.455 0.057,0.234 0.139,0.458 0.238,0.674 M 5.993,-4.865 c 0.117,0.25 0.211,0.51 0.277,0.778 0.002,0.007 0.003,0.015 0.006,0.023 M 4.413,-6.761 c 0.691,0.525 1.239,1.17 1.58,1.896 m -6.758,0.837 c 0.075,-0.023 0.149,-0.049 0.226,-0.069 0.681,-0.182 1.462,-0.208 2.217,-0.093 m -4.815,1.439 c -0.581,0.477 -1.051,1.017 -1.383,1.558 M 4.425,-2.788 C 4.163,-3.126 3.806,-3.409 3.393,-3.633 M 1.678,-4.19 c 0.613,0.094 1.207,0.28 1.715,0.557 m 1.032,0.845 c 0.324,0.417 0.502,0.921 0.47,1.502 m -8.032,-1.465 c 0.66,-0.543 1.463,-0.999 2.372,-1.277 M -4.983,1.287 C -4.99,1.267 -4.995,1.247 -5.003,1.228 m 0.483,-2.421 c -0.27,0.441 -0.453,0.881 -0.528,1.286 -0.001,0.002 -0.001,0.006 -0.001,0.008 m 0.046,1.127 C -5.106,0.917 -5.13,0.546 -5.049,0.101 m 2.129,-11.764 c -1.423,0.36 -2.684,1.016 -3.713,1.854 m 3.713,-1.854 c 0.022,-0.006 0.043,-0.012 0.065,-0.018 1.396,-0.344 2.777,-0.394 4.04,-0.194 m -10.573,8.552 c 0.01,0.047 0.019,0.096 0.03,0.144 m 2.725,-6.63 c -1.03,0.838 -1.827,1.858 -2.316,2.947 m 0,0 c -0.516,1.148 -0.69,2.372 -0.439,3.539 m 13.744,-7.361 c 0.769,0.508 1.399,1.152 1.837,1.906 M 4.356,-10.684 C 3.459,-11.277 2.374,-11.687 1.185,-11.875 M -5.134,1.219 c -0.743,-0.343 -1.425,-0.792 -2.03,-1.33 m 2.181,1.398 C -5.034,1.265 -5.084,1.241 -5.134,1.219 M 2.865,0.613 c 0.779,-0.514 1.466,-1.157 2.03,-1.899 m 1.298,-7.492 c 0.207,0.652 0.334,1.339 0.373,2.049 m -1.671,5.443 c 0.624,-0.819 1.096,-1.759 1.381,-2.778 m -15.664,0.741 c 0.477,1.244 1.246,2.342 2.224,3.212 m 13.73,-6.618 c 0.008,0.149 0.013,0.298 0.013,0.449 0,0.767 -0.108,1.51 -0.303,2.216 m -15.664,0.741 c -0.352,-0.919 -0.547,-1.915 -0.547,-2.957 0,-4.56 3.696,-8.257 8.257,-8.257 2.178,0 4.159,0.846 5.634,2.224 m 2.237,3.535 C 5.759,-10.145 4.98,-11.357 3.956,-12.313 m -8.939,13.6 c 1.012,0.443 2.129,0.69 3.305,0.69 1.679,0 3.239,-0.503 4.543,-1.364 m -7.868,0.615 c 1.849,0.125 3.571,-0.326 5.032,-1.213 m 0,0 C 0.036,0.011 0.043,0.006 0.05,0.002 M 0.159,-0.064 C 0.137,-0.051 0.116,-0.038 0.094,-0.025 M 0.05,0.002 c 0.014,-0.009 0.029,-0.017 0.044,-0.027 m 4.319,-6.736 c -0.18,1.127 -0.53,2.18 -1.02,3.128 m 0,0 c -0.728,1.407 -1.765,2.581 -3.017,3.426 m 3.98,-10.477 c 0.247,1.371 0.253,2.691 0.057,3.923 M 0.376,-0.207 C 0.304,-0.158 0.233,-0.11 0.159,-0.064 M -5.003,1.228 C -5.046,1.225 -5.09,1.222 -5.134,1.219 m 9.49,-11.903 c -0.097,-0.536 -0.228,-1.08 -0.4,-1.629 M 0.029,0.015 C 0.019,0.009 0.01,0.005 0,0 M 0.029,0.015 C 0.046,0.024 0.063,0.033 0.082,0.042 M 0.108,0.054 C 0.1,0.05 0.09,0.046 0.082,0.042 m -6.715,-9.851 c 0.331,1.157 0.799,2.402 1.387,3.616 m 2.109,3.442 c -0.81,-1.034 -1.52,-2.221 -2.109,-3.442 m 5.157,6.147 c -1.124,-0.6 -2.148,-1.557 -3.048,-2.705 M 2.865,0.613 C 2.874,0.612 2.883,0.612 2.892,0.611 M 0,0 c -0.029,-0.015 -0.06,-0.03 -0.089,-0.046 m 2.84,0.779 C 1.783,0.811 0.975,0.48 0.108,0.054 m -6.741,-9.863 c -0.275,-0.96 -0.455,-1.859 -0.53,-2.628 M 1.678,-4.19 C 1.455,-2.649 0.989,-1.253 0.225,-0.152 M 0.109,0.004 C 0.106,0.007 0.104,0.011 0.102,0.014 m -2.369,1.94 C -1.242,1.569 -0.545,0.873 0.082,0.042 m 1.706,-8.023 c 0.09,1.302 0.064,2.59 -0.11,3.791 M 0.082,0.042 C 0.088,0.033 0.095,0.024 0.102,0.014 m 1.083,-11.889 c 0.303,1.264 0.512,2.585 0.603,3.894 m -1.292,-6.25 c 0.263,0.748 0.495,1.54 0.689,2.356 M 0.159,-0.064 C 0.18,-0.093 0.204,-0.122 0.225,-0.152 m -0.066,0.088 c -0.016,0.023 -0.033,0.045 -0.05,0.068 m -0.315,-0.012 c 0.039,-0.012 0.078,-0.025 0.117,-0.038 m -0.117,0.038 C -1.79,0.48 -3.474,0.585 -5.049,0.101 m 5.425,-0.308 c -0.051,0.018 -0.1,0.037 -0.151,0.055 m 4.2,-2.636 c -1.09,1.08 -2.508,2.006 -4.049,2.581 m -0.151,0.055 c -0.048,0.017 -0.097,0.034 -0.146,0.05 m 5.914,-4.763 c 0.324,-0.621 0.523,-1.251 0.573,-1.864 m -14.05,5.489 c -0.72,-0.611 -1.381,-1.406 -1.953,-2.418 m 13.862,0.87 C 5.081,-3.439 5.619,-4.145 5.993,-4.865 M -7.484,-1.24 c 0.757,0.642 1.58,1.079 2.435,1.341 m 4.96,-0.147 c 0.056,-0.018 0.112,-0.036 0.168,-0.056 m -1.896,-7.874 c -0.37,-1.304 -0.75,-2.576 -1.103,-3.687 M 0.102,0.014 C 0.101,0.011 0.1,0.007 0.1,0.004 M 0.094,-0.025 C 0.089,-0.051 0.085,-0.076 0.079,-0.102 m -0.844,-3.926 c 0.378,1.526 0.683,2.908 0.839,3.901 0.002,0.008 0.004,0.017 0.005,0.025 M 0.224,1.702 C 0.258,1.445 0.215,0.674 0.108,0.054 m -1.925,-8.03 c 0.375,1.327 0.739,2.688 1.052,3.948 m -2.155,-7.635 c -0.325,-1.022 -0.627,-1.91 -0.877,-2.563 m 3.891,14.201 c 0.002,0.01 0.004,0.019 0.006,0.029 m 0.008,0.05 C 0.106,0.042 0.103,0.028 0.102,0.014"
           id="path7081"
           style="fill:none;stroke:#ffffff;stroke-width:0.65700001;stroke-linecap:butt;stroke-linejoin:miter;stroke-miterlimit:4;stroke-opacity:1;stroke-dasharray:none" />
      </g>
      <path
         d="m 416.672,175.661 -5.684,0 0,3.659 5.684,0 0,-3.659 z"
         id="path7083"
         style="fill:#000000;fill-opacity:1;fill-rule:nonzero;stroke:none" />
      <path
         d="m 424.736,175.661 -5.684,0 0,3.659 5.684,0 0,-3.659 z"
         id="path7085"
         style="fill:#000000;fill-opacity:1;fill-rule:nonzero;stroke:none" />
      <path
         d="m 411.115,175.962 5.271,0 0,3.159 -5.271,0 0,-3.159 z m -0.29,-0.58 c -0.076,0 -0.151,0.03 -0.204,0.085 -0.055,0.054 -0.086,0.129 -0.086,0.204 l 0,3.74 c 0,0.077 0.031,0.152 0.086,0.205 0.053,0.054 0.128,0.086 0.204,0.086 l 5.851,0 c 0.076,0 0.15,-0.032 0.205,-0.086 0.054,-0.053 0.085,-0.128 0.085,-0.205 l 0,-3.74 c 0,-0.075 -0.031,-0.15 -0.085,-0.204 -0.055,-0.055 -0.129,-0.085 -0.205,-0.085 l -5.851,0 z"
         id="path7087"
         style="fill:#ffffff;fill-opacity:1;fill-rule:nonzero;stroke:none" />
      <path
         d="m 412.989,175.234 1.522,0 0,-0.581 -1.522,0 0,0.581 z"
         id="path7089"
         style="fill:#ffffff;fill-opacity:1;fill-rule:nonzero;stroke:none" />
      <g
         transform="translate(411.4659,174.2153)"
         id="g7091">
        <path
           d="m 0,0 c -0.084,0 -0.152,0.065 -0.152,0.145 0,0.08 0.068,0.146 0.152,0.146 l 4.57,0 C 4.653,0.291 4.721,0.225 4.721,0.145 4.721,0.065 4.653,0 4.57,0 L 0,0 z"
           id="path7093"
           style="fill:#ffffff;fill-opacity:1;fill-rule:nonzero;stroke:none" />
      </g>
      <path
         d="m 433.014,175.661 -5.684,0 0,3.659 5.684,0 0,-3.659 z"
         id="path7095"
         style="fill:#000000;fill-opacity:1;fill-rule:nonzero;stroke:none" />
      <path
         d="m 419.309,175.961 5.27,0 0,3.159 -5.27,0 0,-3.159 z m -0.29,-0.58 c -0.076,0 -0.151,0.031 -0.205,0.085 -0.054,0.054 -0.085,0.129 -0.085,0.205 l 0,3.739 c 0,0.077 0.031,0.153 0.085,0.206 0.054,0.053 0.129,0.085 0.205,0.085 l 5.851,0 c 0.076,0 0.151,-0.032 0.204,-0.085 0.054,-0.053 0.085,-0.129 0.085,-0.206 l 0,-3.739 c 0,-0.076 -0.031,-0.151 -0.085,-0.205 -0.053,-0.054 -0.128,-0.085 -0.204,-0.085 l -5.851,0 z"
         id="path7097"
         style="fill:#ffffff;fill-opacity:1;fill-rule:nonzero;stroke:none" />
      <path
         d="m 421.184,175.234 1.522,0 0,-0.581 -1.522,0 0,0.581 z"
         id="path7099"
         style="fill:#ffffff;fill-opacity:1;fill-rule:nonzero;stroke:none" />
      <g
         transform="translate(419.6604,174.2153)"
         id="g7101">
        <path
           d="m 0,0 c -0.085,0 -0.152,0.065 -0.152,0.145 0,0.08 0.067,0.146 0.152,0.146 l 4.57,0 C 4.654,0.291 4.721,0.225 4.721,0.145 4.721,0.065 4.654,0 4.57,0 L 0,0 z"
           id="path7103"
           style="fill:#ffffff;fill-opacity:1;fill-rule:nonzero;stroke:none" />
      </g>
      <path
         d="m 427.504,175.962 5.269,0 0,3.159 -5.269,0 0,-3.159 z m -0.291,-0.58 c -0.077,0 -0.151,0.03 -0.205,0.085 -0.054,0.054 -0.085,0.129 -0.085,0.204 l 0,3.74 c 0,0.077 0.031,0.152 0.085,0.205 0.054,0.054 0.128,0.086 0.205,0.086 l 5.851,0 c 0.077,0 0.15,-0.032 0.205,-0.086 0.054,-0.053 0.084,-0.128 0.084,-0.205 l 0,-3.74 c 0,-0.075 -0.03,-0.15 -0.084,-0.204 -0.055,-0.055 -0.128,-0.085 -0.205,-0.085 l -5.851,0 z"
         id="path7105"
         style="fill:#ffffff;fill-opacity:1;fill-rule:nonzero;stroke:none" />
      <path
         d="m 429.378,175.234 1.521,0 0,-0.581 -1.521,0 0,0.581 z"
         id="path7107"
         style="fill:#ffffff;fill-opacity:1;fill-rule:nonzero;stroke:none" />
      <g
         transform="translate(427.8537,174.2153)"
         id="g7109">
        <path
           d="m 0,0 c -0.084,0 -0.151,0.065 -0.151,0.145 0,0.08 0.067,0.146 0.151,0.146 l 4.57,0 C 4.654,0.291 4.722,0.225 4.722,0.145 4.722,0.065 4.654,0 4.57,0 L 0,0 z"
           id="path7111"
           style="fill:#ffffff;fill-opacity:1;fill-rule:nonzero;stroke:none" />
      </g>
      <g
         transform="translate(413.7505,179.7016)"
         id="g7113">
        <path
           d="m 0,0 0,1.163 16.389,0 0,-1.163 M 8.194,2.909 8.194,0"
           id="path7115"
           style="fill:none;stroke:#ffffff;stroke-width:0.65700001;stroke-linecap:butt;stroke-linejoin:miter;stroke-miterlimit:4;stroke-opacity:1;stroke-dasharray:none" />
      </g>
      <path
         d="m 438.272,168.432 -32.655,0 0,32.655 32.655,0 0,-32.655 z m -33.335,-0.681 34.016,0 0,34.016 -34.016,0 0,-34.016 z"
         id="path7117"
         style="fill:#000000;fill-opacity:1;fill-rule:nonzero;stroke:none" />
      <path
         d="m 438.953,167.751 -34.016,0 0,5.443 34.016,0 0,-5.443 z"
         id="path7119"
         style="fill:#000000;fill-opacity:1;fill-rule:nonzero;stroke:none" />
      <g
         transform="translate(416.1946,169.7148)"
         id="g7121">
        <path
           d="m 0,0 c 0,-0.22 0.092,-0.306 0.225,-0.306 0.132,0 0.224,0.086 0.224,0.306 l 0,1.665 C 0.449,1.884 0.357,1.971 0.225,1.971 0.092,1.971 0,1.884 0,1.665 L 0,0 z M -0.843,1.91 C -0.72,2.503 -0.322,2.727 0.225,2.727 0.771,2.727 1.17,2.503 1.292,1.91 1.333,1.721 1.348,1.394 1.348,0.832 1.348,0.27 1.333,-0.056 1.292,-0.245 1.17,-0.838 0.771,-1.062 0.225,-1.062 c -0.547,0 -0.945,0.224 -1.068,0.817 -0.041,0.189 -0.056,0.515 -0.056,1.077 0,0.562 0.015,0.889 0.056,1.078"
           id="path7123"
           style="fill:#ffffff;fill-opacity:1;fill-rule:nonzero;stroke:none" />
      </g>
      <g
         transform="translate(417.9085,168.7136)"
         id="g7125">
        <path
           d="m 0,0 0,3.667 0.822,0 0.557,-1.624 0.01,0 0,1.624 0.735,0 L 2.124,0 1.328,0 0.746,1.9 0.735,1.9 0.735,0 0,0 z"
           id="path7127"
           style="fill:#ffffff;fill-opacity:1;fill-rule:nonzero;stroke:none" />
      </g>
      <g
         transform="translate(420.46,168.7136)"
         id="g7129">
        <path
           d="m 0,0 0,3.667 0.858,0 0,-2.88 1.103,0 L 1.961,0 0,0 z"
           id="path7131"
           style="fill:#ffffff;fill-opacity:1;fill-rule:nonzero;stroke:none" />
      </g>
      <path
         d="m 422.792,172.381 0.858,0 0,-3.667 -0.858,0 0,3.667 z"
         id="path7133"
         style="fill:#ffffff;fill-opacity:1;fill-rule:nonzero;stroke:none" />
      <g
         transform="translate(424.1439,168.7136)"
         id="g7135">
        <path
           d="m 0,0 0,3.667 0.823,0 0.556,-1.624 0.01,0 0,1.624 0.736,0 L 2.125,0 1.328,0 0.745,1.9 0.735,1.9 0.735,0 0,0 z"
           id="path7137"
           style="fill:#ffffff;fill-opacity:1;fill-rule:nonzero;stroke:none" />
      </g>
      <g
         transform="translate(426.6949,168.7136)"
         id="g7139">
        <path
           d="m 0,0 0,3.667 1.859,0 0,-0.756 -1.001,0 0,-0.623 0.828,0 0,-0.786 -0.828,0 0,-0.715 1.052,0 L 1.91,0 0,0 z"
           id="path7141"
           style="fill:#ffffff;fill-opacity:1;fill-rule:nonzero;stroke:none" />
      </g>
      <g
         transform="translate(437.592,198.4488)"
         id="g7143">
        <path
           d="m 0,0 -0.316,0 0,1.541 -0.01,0 L -0.868,0 l -0.257,0 -0.516,1.541 -0.009,0 0,-1.541 -0.317,0 0,1.957 0.503,0 0.487,-1.455 0.01,0 0.475,1.455 L 0,1.957 0,0 z m -2.192,1.957 0,-0.253 -0.539,0 0,-1.704 -0.316,0 0,1.704 -0.538,0 0,0.253 1.393,0 z"
           id="path7145"
           style="fill:#ffffff;fill-opacity:1;fill-rule:nonzero;stroke:none" />
      </g>
    </g>
  </g>
</svg>
